<svg width="156" height="88" viewBox="0 0 156 88" fill="none" xmlns="http://www.w3.org/2000/svg">
<path d="M121 6.53224L101.331 11.7206C102.689 18.094 103.328 23.4771 103.246 27.8699C103.164 32.2627 102.418 36.2078 101.007 39.7049C100.036 42.117 98.7715 44.2604 97.2138 46.1351C95.6562 48.0099 93.8984 49.5962 91.9406 50.8943C95.9849 49.4999 99.5965 47.3266 102.775 44.3745C105.954 41.4223 108.411 37.7944 110.144 33.4905L121 6.53224Z" fill="#F98B33"/>
<path d="M34 6.53224L53.6689 11.7206C52.3105 18.094 51.6722 23.4771 51.7541 27.8699C51.8359 32.2627 52.5821 36.2078 53.9926 39.7049C54.964 42.117 56.2285 44.2604 57.7862 46.1351C59.3438 48.0099 61.1016 49.5962 63.0594 50.8943C59.0151 49.4999 55.4035 47.3266 52.2245 44.3745C49.0455 41.4223 46.5895 37.7944 44.8563 33.4905L34 6.53224Z" fill="#F98B33"/>
<path d="M94.5515 21.9398C93.5184 19.5722 92.0167 17.4471 90.1401 15.6976L88.5916 14.2508C88.5391 14.203 88.4758 14.1691 88.4073 14.1521C88.3389 14.135 88.2674 14.1353 88.1991 14.153C88.1308 14.1706 88.0678 14.2051 88.0156 14.2533C87.9634 14.3016 87.9237 14.3621 87.8999 14.4296L87.2081 16.4508C86.7771 17.7187 85.9842 19.0138 84.8614 20.2871C84.7869 20.3684 84.7018 20.3901 84.6433 20.3955C84.5847 20.4009 84.4943 20.3901 84.4144 20.3142C84.3399 20.2492 84.3027 20.1517 84.308 20.0541C84.5049 16.7921 83.5471 13.1129 81.4505 9.10858C79.7157 5.78157 77.3052 3.18607 74.2934 1.37626L72.0957 0.0595402C71.8083 -0.113855 71.4412 0.113726 71.4571 0.455097L71.5742 3.05602C71.654 4.83332 71.4518 6.40471 70.9729 7.71059C70.3875 9.30907 69.5468 10.7938 68.4719 12.1267C67.7238 13.0531 66.876 13.891 65.9443 14.6247C63.7003 16.3812 61.8757 18.6319 60.607 21.2083C59.3415 23.8071 58.6823 26.6684 58.6807 29.5692C58.6807 32.1267 59.1756 34.603 60.1547 36.9384C61.1001 39.187 62.4645 41.2277 64.1723 42.9477C65.8964 44.6816 67.8972 46.0471 70.1268 46.9953C72.4362 47.9815 74.884 48.48 77.4116 48.48C79.9392 48.48 82.387 47.9815 84.6965 47.0008C86.9206 46.0581 88.9431 44.6832 90.651 42.9531C92.3751 41.2191 93.7267 39.1926 94.6685 36.9439C95.6462 34.6148 96.1477 32.1074 96.1425 29.5746C96.1425 26.9303 95.6104 24.3619 94.5515 21.9398Z" fill="#F98B33"/>
<path d="M19.4238 58.5986V62.6416C17.4512 60.9912 15.4102 60.166 13.3008 60.166C10.9766 60.166 9.01855 61.001 7.42676 62.6709C5.8252 64.3311 5.02441 66.3623 5.02441 68.7646C5.02441 71.1377 5.8252 73.1396 7.42676 74.7705C9.02832 76.4014 10.9912 77.2168 13.3154 77.2168C14.5166 77.2168 15.5371 77.0215 16.377 76.6309C16.8457 76.4355 17.3291 76.1719 17.8271 75.8398C18.335 75.5078 18.8672 75.1074 19.4238 74.6387V78.7549C17.4707 79.8584 15.4199 80.4102 13.2715 80.4102C10.0391 80.4102 7.28027 79.2822 4.99512 77.0264C2.71973 74.751 1.58203 72.0068 1.58203 68.7939C1.58203 65.9131 2.53418 63.3447 4.43848 61.0889C6.78223 58.3252 9.81445 56.9434 13.5352 56.9434C15.5664 56.9434 17.5293 57.4951 19.4238 58.5986ZM27.6111 65.7324V73.9209C27.6111 76.2842 28.5438 77.4658 30.409 77.4658C32.2742 77.4658 33.2068 76.2842 33.2068 73.9209V65.7324H36.5027V73.9941C36.5027 75.1367 36.3611 76.123 36.0779 76.9531C35.8045 77.6953 35.3309 78.3643 34.657 78.96C33.5438 79.9268 32.1277 80.4102 30.409 80.4102C28.7 80.4102 27.2889 79.9268 26.1756 78.96C25.492 78.3643 25.0086 77.6953 24.7254 76.9531C24.452 76.2891 24.3152 75.3027 24.3152 73.9941V65.7324H27.6111ZM45.1588 65.7324V80H41.8629V65.7324H45.1588ZM41.3648 59.7998C41.3648 59.2236 41.5748 58.7256 41.9947 58.3057C42.4146 57.8857 42.9176 57.6758 43.5035 57.6758C44.0992 57.6758 44.607 57.8857 45.027 58.3057C45.4469 58.7158 45.6568 59.2188 45.6568 59.8145C45.6568 60.4102 45.4469 60.918 45.027 61.3379C44.6168 61.7578 44.1139 61.9678 43.5182 61.9678C42.9225 61.9678 42.4146 61.7578 41.9947 61.3379C41.5748 60.918 41.3648 60.4053 41.3648 59.7998ZM61.0512 55.2588H64.3617V80H61.0512V78.5059C59.7523 79.7754 58.2826 80.4102 56.642 80.4102C54.6889 80.4102 53.0678 79.6973 51.7787 78.2715C50.4994 76.8164 49.8598 75 49.8598 72.8223C49.8598 70.6934 50.4994 68.916 51.7787 67.4902C53.0482 66.0547 54.6449 65.3369 56.5687 65.3369C58.2387 65.3369 59.7328 66.0205 61.0512 67.3877V55.2588ZM53.2289 72.8223C53.2289 74.1895 53.5951 75.3027 54.3275 76.1621C55.0795 77.0312 56.0268 77.4658 57.1693 77.4658C58.39 77.4658 59.3764 77.0459 60.1283 76.2061C60.8803 75.3369 61.2562 74.2334 61.2562 72.8955C61.2562 71.5576 60.8803 70.4541 60.1283 69.585C59.3764 68.7354 58.3998 68.3105 57.1986 68.3105C56.0658 68.3105 55.1186 68.7402 54.3568 69.5996C53.6049 70.4688 53.2289 71.543 53.2289 72.8223ZM80.2395 65.7324H83.55V80H80.2395V78.5059C78.882 79.7754 77.4221 80.4102 75.8596 80.4102C73.8869 80.4102 72.2561 79.6973 70.967 78.2715C69.6877 76.8164 69.048 75 69.048 72.8223C69.048 70.6836 69.6877 68.9014 70.967 67.4756C72.2463 66.0498 73.8479 65.3369 75.7717 65.3369C77.4318 65.3369 78.9211 66.0205 80.2395 67.3877V65.7324ZM72.4172 72.8223C72.4172 74.1895 72.7834 75.3027 73.5158 76.1621C74.2678 77.0312 75.215 77.4658 76.3576 77.4658C77.5783 77.4658 78.5647 77.0459 79.3166 76.2061C80.0686 75.3369 80.4445 74.2334 80.4445 72.8955C80.4445 71.5576 80.0686 70.4541 79.3166 69.585C78.5647 68.7354 77.5881 68.3105 76.3869 68.3105C75.2541 68.3105 74.3068 68.7402 73.5451 69.5996C72.7932 70.4688 72.4172 71.543 72.4172 72.8223ZM95.7803 60.5908V80H92.3672V60.5908H87.167V57.3828H100.966V60.5908H95.7803ZM116.346 73.6426H106.121C106.209 74.8145 106.59 75.7471 107.263 76.4404C107.937 77.124 108.802 77.4658 109.856 77.4658C110.677 77.4658 111.355 77.2705 111.892 76.8799C112.42 76.4893 113.02 75.7666 113.694 74.7119L116.477 76.2646C116.048 76.9971 115.594 77.627 115.115 78.1543C114.637 78.6719 114.124 79.1016 113.577 79.4434C113.03 79.7754 112.439 80.0195 111.804 80.1758C111.17 80.332 110.481 80.4102 109.739 80.4102C107.61 80.4102 105.901 79.7266 104.612 78.3594C103.323 76.9824 102.679 75.1562 102.679 72.8809C102.679 70.625 103.304 68.7988 104.554 67.4023C105.813 66.0254 107.483 65.3369 109.563 65.3369C111.663 65.3369 113.323 66.0059 114.544 67.3438C115.755 68.6719 116.36 70.5127 116.36 72.8662L116.346 73.6426ZM112.962 70.9473C112.503 69.1895 111.394 68.3105 109.637 68.3105C109.236 68.3105 108.86 68.374 108.509 68.501C108.157 68.6182 107.835 68.7939 107.542 69.0283C107.259 69.2529 107.014 69.5264 106.809 69.8486C106.604 70.1709 106.448 70.5371 106.341 70.9473H112.962ZM121.164 65.7324H124.46V67.0068C125.065 66.3721 125.602 65.9375 126.071 65.7031C126.549 65.459 127.116 65.3369 127.77 65.3369C128.639 65.3369 129.547 65.6201 130.495 66.1865L128.986 69.2041C128.361 68.7549 127.751 68.5303 127.155 68.5303C125.358 68.5303 124.46 69.8877 124.46 72.6025V80H121.164V65.7324ZM134.053 65.7324H137.349V67.0508C137.984 66.3867 138.526 65.9375 138.975 65.7031C139.454 65.459 140.054 65.3369 140.777 65.3369C142.388 65.3369 143.663 66.04 144.6 67.4463C145.635 66.04 147.037 65.3369 148.804 65.3369C152.017 65.3369 153.623 67.2852 153.623 71.1816V80H150.313V72.0752C150.313 70.708 150.147 69.7412 149.815 69.1748C149.473 68.5986 148.912 68.3105 148.13 68.3105C147.222 68.3105 146.558 68.6523 146.138 69.3359C145.728 70.0195 145.523 71.1182 145.523 72.6318V80H142.212V72.1191C142.212 69.5801 141.48 68.3105 140.015 68.3105C139.087 68.3105 138.409 68.6572 137.979 69.3506C137.559 70.0439 137.349 71.1377 137.349 72.6318V80H134.053V65.7324Z" fill="#0097B2"/>
<path d="M78.0644 43.0769C82.1779 42.7946 88.1717 40.5113 89.4356 33.4231" stroke="white" stroke-width="3" stroke-linecap="round"/>
</svg>
