<svg width="112" height="112" viewBox="0 0 112 112" fill="none" xmlns="http://www.w3.org/2000/svg">
<path d="M59.8329 22.8713L60.4738 27.7356L61.1006 27.8196L63.2271 23.8296L66.5809 25.0133C66.3631 27.4369 63.8742 31.5964 68.2453 33.1956C65.3878 34.1569 63.8726 35.126 61.04 33.1707C59.4098 32.0444 56.9535 33.2951 55.9969 33.6996C54.824 34.1973 53.452 34.7247 53.6884 36.7096C53.7538 37.2493 54.2826 37.772 53.0335 39.3836C50.5509 42.1665 48.7869 41.8833 45.682 47.4662C41.874 42.4309 43.8464 32.0289 50.2164 28.3251L49.4542 25.3027L52.7302 23.8716L55.2969 27.9082L56.7435 22.8713H59.8329Z" fill="#EA5A47"/>
<path d="M58.9556 79.8311C61.6946 74.0084 62.8021 67.5515 62.16 61.1488C61.5798 55.552 61.8862 56.0062 62.496 53.5468C66.9247 57.0935 72.4671 56.4775 76.9907 55.3668C77.6317 56.3892 78.064 57.5283 78.2626 58.7185C78.4613 59.9087 78.4223 61.1264 78.148 62.3015C76.7823 70.8482 72.8143 78.7659 66.7847 84.9753C61.782 90.118 56.7731 90.6251 51.1047 86.282C43.1216 80.1671 36.3922 72.9975 33.7385 62.8615C32.2949 57.3517 36.7562 48.6997 42.0669 46.6791C42.6777 46.4259 43.3513 46.3655 43.9975 46.5059C44.6436 46.6463 45.2314 46.9808 45.682 47.4646C48.5158 50.1552 50.6698 53.4805 51.9665 57.1666C52.9465 59.5948 53.7771 62.0853 54.74 64.7266C50.1714 51.8108 48.1849 49.5491 45.6805 47.4646C47.2609 43.638 51.66 40.7151 53.032 39.382C53.2978 39.095 53.5029 38.7574 53.6352 38.3894C53.7675 38.0214 53.8243 37.6304 53.802 37.24C53.6707 36.9132 53.6106 36.5622 53.6257 36.2103C53.6408 35.8585 53.7308 35.5139 53.8897 35.1996C54.0485 34.8852 54.2726 34.6084 54.5469 34.3876C54.8212 34.1667 55.1395 34.0069 55.4805 33.9188C57.5929 33.0368 59.6089 31.8391 61.9889 33.8006C63.224 34.4026 64.6536 34.4695 65.94 33.9811C69.3514 32.8906 72.66 31.4688 75.5829 30.3411L79.4936 38.248C77.1042 39.9062 74.1658 41.8102 71.3814 43.9195C69.2002 45.5254 67.1508 47.3028 65.2525 49.2348C63.8688 50.6197 62.8467 52.3236 62.2763 54.1963C61.7058 56.069 61.6045 58.0533 61.9811 59.9744C63.05 66.3954 62.1129 72.9897 59.2978 78.8588C59.1562 79.17 59.0691 79.5075 58.9556 79.8311Z" fill="#D22F27"/>
<path d="M45.6804 47.4646C41.0262 43.4513 35.6238 52.1811 34.1538 56.4169C32.6271 53.7872 32.1388 50.6817 32.7849 47.7104C34.4789 41.5131 36.3004 35.3484 38.0007 29.4093H48.6858C47.6602 30.2967 46.7804 31.3397 46.0787 32.5002C44.9597 34.3467 44.2313 36.403 43.9383 38.542C43.6454 40.6811 43.7941 42.8575 44.3753 44.9369C44.7089 45.8284 45.1475 46.677 45.682 47.4646H45.6804ZM71.3813 43.9195C73.648 46.1924 74.935 49.2622 74.9669 52.472C74.9684 53.1051 75.1411 55.79 74.5811 55.8755C71.6387 56.4879 68.5872 56.3195 65.73 55.3871C62.0122 54.0182 62.4695 52.612 64.1169 50.5804C66.2653 48.0796 68.704 45.8435 71.3813 43.9195Z" fill="#EA5A47"/>
<path d="M59.8329 22.8713L60.4738 27.7356L61.1006 27.8196L63.2271 23.8296L66.5809 25.0133C66.3631 27.4369 63.8742 31.5964 68.2453 33.1956C65.3878 34.1569 63.8726 35.126 61.04 33.1707C59.4098 32.0444 56.9535 33.2951 55.9969 33.6996C54.824 34.1973 53.452 34.7247 53.6884 36.7096C53.7538 37.2493 54.2826 37.772 53.0335 39.3836C50.5509 42.1665 48.7869 41.8833 45.682 47.4662C41.874 42.4309 43.8464 32.0289 50.2164 28.3251L49.4542 25.3027L52.7302 23.8716L55.2969 27.9082L56.7435 22.8713H59.8329Z" stroke="black" stroke-width="2" stroke-linecap="round" stroke-linejoin="round"/>
<path d="M58.9555 79.8311C61.6945 74.0084 62.802 67.5515 62.16 61.1488C61.5797 55.552 61.8862 56.0062 62.496 53.5468C66.9246 57.0935 72.4671 56.4775 76.9906 55.3668C77.6317 56.3892 78.0639 57.5283 78.2626 58.7185C78.4612 59.9087 78.4223 61.1264 78.148 62.3015C76.7823 70.8482 72.8142 78.7659 66.7846 84.9753C61.782 90.118 56.7731 90.6251 51.1046 86.282C43.1215 80.1671 36.3922 72.9975 33.7384 62.8615C32.2949 57.3517 36.7562 48.6997 42.0669 46.6791C42.6777 46.4259 43.3513 46.3655 43.9974 46.5059C44.6435 46.6463 45.2313 46.9808 45.682 47.4646C48.5157 50.1552 50.6697 53.4805 51.9664 57.1666C52.9464 59.5948 53.7771 62.0853 54.74 64.7266C50.1713 51.8108 48.1849 49.5491 45.6804 47.4646C47.2609 43.638 51.66 40.7151 53.032 39.382C53.2977 39.095 53.5029 38.7574 53.6352 38.3894C53.7675 38.0214 53.8242 37.6304 53.802 37.24C53.6707 36.9132 53.6105 36.5622 53.6257 36.2103C53.6408 35.8585 53.7308 35.5139 53.8896 35.1996C54.0485 34.8852 54.2725 34.6084 54.5468 34.3876C54.8212 34.1667 55.1394 34.0069 55.4804 33.9188C57.5929 33.0368 59.6089 31.8391 61.9889 33.8006C63.224 34.4026 64.6535 34.4695 65.94 33.9811C69.3513 32.8906 72.66 31.4688 75.5829 30.3411L79.4935 38.248C77.1042 39.9062 74.1657 41.8102 71.3813 43.9195C69.2002 45.5254 67.1507 47.3028 65.2524 49.2348" stroke="black" stroke-width="2" stroke-linecap="round" stroke-linejoin="round"/>
<path d="M45.6804 47.4646C41.0262 43.4513 35.6238 52.1811 34.1538 56.4169C32.6271 53.7872 32.1388 50.6817 32.7849 47.7104C34.4789 41.5131 36.3004 35.3484 38.0007 29.4093H48.6858C47.6602 30.2967 46.7804 31.3397 46.0787 32.5002C44.9597 34.3467 44.2313 36.403 43.9383 38.542C43.6454 40.6811 43.7941 42.8575 44.3753 44.9369C44.7089 45.8284 45.1475 46.677 45.682 47.4646H45.6804ZM71.3813 43.9195C73.648 46.1924 74.935 49.2622 74.9669 52.472C74.9684 53.1051 75.1411 55.79 74.5811 55.8755C71.6387 56.4879 68.5872 56.3195 65.73 55.3871C62.0122 54.0182 62.4695 52.612 64.1169 50.5804C66.2653 48.0796 68.704 45.8435 71.3813 43.9195Z" stroke="black" stroke-width="2" stroke-linecap="round" stroke-linejoin="round"/>
</svg>
