<svg width="112" height="112" viewBox="0 0 112 112" fill="none" xmlns="http://www.w3.org/2000/svg">
<path d="M50.1511 50.7811C49.9022 49.7529 49.7311 48.7682 49.4169 47.8333C49.0239 46.5791 48.5436 45.354 47.9795 44.1669C47.7167 43.5287 47.3241 42.952 46.8268 42.4735C46.3294 41.9949 45.7381 41.6249 45.0903 41.3868C44.4425 41.1488 43.7522 41.0478 43.0634 41.0905C42.3745 41.1331 41.702 41.3183 41.0884 41.6344C39.5836 42.2791 38.1931 43.1632 36.9709 44.2524C33.1727 47.6151 30.0235 51.6458 27.6795 56.1446C26.1282 58.8653 24.9603 61.7873 24.2091 64.8277C23.8516 66.2776 23.6349 67.7587 23.562 69.2502C23.4469 72.8326 23.4484 76.4182 23.4655 80.0022C23.4367 81.7967 23.6924 83.5844 24.2231 85.2989C24.494 86.3893 25.1221 87.3578 26.0073 88.0499C26.8925 88.742 27.9839 89.1179 29.1075 89.1177C29.2607 89.1377 29.4117 89.1715 29.5586 89.2189H29.7951C30.3193 89.1566 30.8466 89.11 31.3662 89.0291C35.0981 88.3612 38.6263 86.8437 41.678 84.5942C44.7464 82.5322 47.3043 79.7977 49.1571 76.5986C50.4649 74.3606 51.1327 71.8062 51.0875 69.2144C50.9921 65.1814 50.9014 61.1483 50.8153 57.1153C50.7801 54.9886 50.5584 52.869 50.1526 50.7811H50.1511ZM58.3255 50.2849C58.4033 49.9364 58.464 49.6937 58.5153 49.4511C58.8652 47.4719 59.5367 45.5634 60.5033 43.8013C60.8792 43.0036 61.4585 42.319 62.1829 41.8163C62.9074 41.3136 63.7514 41.0105 64.6302 40.9375C65.8376 40.9092 67.0305 41.2063 68.0835 41.7977C70.6125 43.1822 72.8546 45.0358 74.69 47.2593C78.0338 51.043 80.7272 55.3548 82.6606 60.0195C84.1206 63.259 84.8797 66.7703 84.8882 70.3235C84.8695 71.1449 84.9489 71.9693 84.9831 72.7937V80.3553C84.9442 80.6633 84.9193 80.9729 84.8618 81.2762C84.6652 82.6727 84.3889 84.0568 84.0342 85.4217C83.8093 86.2653 83.3511 87.0282 82.7122 87.6231C82.0733 88.218 81.2796 88.6207 80.4222 88.7849C78.7732 89.1128 77.0685 89.0257 75.4615 88.5313C68.9951 86.8393 63.3877 82.8057 59.7271 77.2131C58.1171 74.8538 57.275 72.0549 57.316 69.1989C57.3922 65.086 57.4995 60.9746 57.5882 56.8633C57.6363 54.6528 57.8831 52.4511 58.3255 50.2849V50.2849Z" fill="#EA5A47"/>
<path d="M50.1511 50.7811C49.9022 49.7529 49.7311 48.7682 49.4169 47.8333C49.0239 46.5791 48.5436 45.354 47.9795 44.1669C47.7167 43.5287 47.3241 42.952 46.8268 42.4735C46.3294 41.9949 45.7381 41.6249 45.0903 41.3868C44.4425 41.1488 43.7522 41.0478 43.0634 41.0905C42.3745 41.1331 41.702 41.3183 41.0884 41.6344C39.5836 42.2791 38.1931 43.1632 36.9709 44.2524C33.1727 47.6151 30.0235 51.6458 27.6795 56.1446C26.1282 58.8653 24.9603 61.7873 24.2091 64.8277C23.8516 66.2776 23.6349 67.7587 23.562 69.2502C23.4469 72.8326 23.4484 76.4182 23.4655 80.0022C23.4367 81.7967 23.6924 83.5844 24.2231 85.2989C24.494 86.3893 25.1221 87.3578 26.0073 88.0499C26.8925 88.742 27.9839 89.1179 29.1075 89.1177C29.2607 89.1377 29.4117 89.1715 29.5586 89.2189H29.7951C30.3193 89.1566 30.8466 89.11 31.3662 89.0291C35.0981 88.3612 38.6263 86.8437 41.678 84.5942C44.7464 82.5322 47.3043 79.7977 49.1571 76.5986C50.4649 74.3606 51.1327 71.8062 51.0875 69.2144C50.9921 65.1814 50.9014 61.1483 50.8153 57.1153C50.7801 54.9886 50.5584 52.869 50.1526 50.7811H50.1511ZM58.3255 50.2849C58.4033 49.9364 58.464 49.6937 58.5153 49.4511C58.8652 47.4719 59.5367 45.5634 60.5033 43.8013C60.8792 43.0036 61.4585 42.319 62.1829 41.8163C62.9074 41.3136 63.7514 41.0105 64.6302 40.9375C65.8376 40.9092 67.0305 41.2063 68.0835 41.7977C70.6125 43.1822 72.8546 45.0358 74.69 47.2593C78.0338 51.043 80.7272 55.3548 82.6606 60.0195C84.1206 63.259 84.8797 66.7703 84.8882 70.3235C84.8695 71.1449 84.9489 71.9693 84.9831 72.7937V80.3553C84.9442 80.6633 84.9193 80.9729 84.8618 81.2762C84.6652 82.6727 84.3889 84.0568 84.0342 85.4217C83.8093 86.2653 83.3511 87.0282 82.7122 87.6231C82.0733 88.218 81.2796 88.6207 80.4222 88.7849C78.7732 89.1128 77.0685 89.0257 75.4615 88.5313C68.9951 86.8393 63.3877 82.8057 59.7271 77.2131C58.1171 74.8538 57.275 72.0549 57.316 69.1989C57.3922 65.086 57.4995 60.9746 57.5882 56.8633C57.6363 54.6528 57.8831 52.4511 58.3255 50.2849V50.2849Z" stroke="black" stroke-width="2" stroke-linecap="round" stroke-linejoin="round"/>
<path d="M53.8284 22.652V46.2544C53.8367 47.8747 53.4852 49.4767 52.7992 50.9446C52.1133 52.4126 51.11 53.7099 49.8618 54.7431C46.6416 57.2321 43.0584 59.2121 39.2373 60.6138C39.2373 60.6138 32.4084 63.4744 29.8215 73.6151" stroke="black" stroke-width="2" stroke-linecap="round" stroke-linejoin="round"/>
<path d="M39.0304 70.2006C39.0304 70.2006 38.3522 62.5473 40.7104 60.0086M33.1333 57.2755C33.1333 57.2755 36.1915 60.6122 42.5273 59.1982M53.8284 22.652V46.2544C53.8202 47.8747 54.1718 49.4766 54.8577 50.9445C55.5437 52.4125 56.5469 53.7099 57.7951 54.7431C61.0153 57.2321 64.5985 59.212 68.4195 60.6138C68.4195 60.6138 75.25 63.4744 77.8369 73.6151" stroke="black" stroke-width="2" stroke-linecap="round" stroke-linejoin="round"/>
<path d="M68.6264 70.2006C68.6264 70.2006 69.3062 62.5473 66.948 60.0086M74.5267 57.2755C74.5267 57.2755 71.4669 60.6122 65.1311 59.1982" stroke="black" stroke-width="2" stroke-linecap="round" stroke-linejoin="round"/>
</svg>
