<svg width="112" height="112" viewBox="0 0 112 112" fill="none" xmlns="http://www.w3.org/2000/svg">
<path d="M82.8115 64.3019C82.7991 64.2366 82.7867 64.1588 82.7727 64.0935C82.7443 63.7895 82.7095 63.4861 82.6684 63.1835C82.6047 62.5348 82.5253 61.8846 82.474 61.2344C82.4473 60.6315 82.2865 60.0421 82.0031 59.5093C81.7197 58.9764 81.321 58.5135 80.836 58.1544C80.061 58.8578 79.1542 59.4006 78.1682 59.7516C77.1822 60.1025 76.1364 60.2546 75.0912 60.1991C74.0461 60.1436 73.0223 59.8815 72.079 59.428C71.1357 58.9745 70.2917 58.3386 69.5955 57.5571C69.3482 57.7126 69.1289 57.8682 68.894 58.0237C68.1935 58.5142 67.4692 58.97 66.724 59.3895C66.2029 59.6617 66.1002 59.8437 66.178 60.3773C66.4605 62.2646 66.1847 64.1934 65.3847 65.9259C65.0225 66.6376 64.6189 67.3273 64.176 67.9917C64.0593 68.1737 63.9287 68.3557 63.812 68.5517C63.8299 68.5511 63.8477 68.5554 63.8633 68.5642C64.2095 68.6766 64.561 68.7721 64.9164 68.8504C65.5056 69.0774 66.1391 69.1663 66.768 69.1103C67.3969 69.0542 68.0046 68.8547 68.5444 68.5271C69.0842 68.1994 69.5416 67.7523 69.8816 67.2203C70.2216 66.6882 70.435 66.0852 70.5055 65.4577C70.6592 64.7723 70.7678 64.0776 70.8307 63.3779L70.8431 63.1571C70.9738 62.0277 71.6613 61.7928 72.0782 61.7539C72.4177 61.7105 72.761 61.7979 73.0383 61.9985C73.3157 62.199 73.5063 62.4975 73.5715 62.8335C73.6898 62.7806 73.7924 62.7293 73.9107 62.6904C75.0328 62.0953 76.3438 61.9647 77.5614 62.3266C78.779 62.6885 79.8057 63.514 80.4207 64.6255C80.7645 65.0633 80.9231 65.6184 80.8624 66.1717C80.7735 66.5107 80.5536 66.8005 80.2511 66.9775C79.1218 67.6806 78.3689 66.5233 78.12 66.1328C77.9644 65.8099 77.7333 65.5293 77.4463 65.3146C77.1593 65.0998 76.8248 64.9574 76.4711 64.8993C75.7279 64.9167 75.0029 65.1333 74.3719 65.5265C73.741 65.9197 73.2271 66.4751 72.884 67.1346C72.5131 68.3915 71.7687 69.5058 70.7496 70.3296C69.7305 71.1533 68.4849 71.6477 67.1782 71.7468C66.6975 71.7873 66.2169 71.7733 65.7487 71.7733C65.6276 71.7627 65.5061 71.7585 65.3847 71.7608L65.2167 72.5402C65.3598 72.6319 65.5029 72.7097 65.6444 72.7999C66.1363 73.0653 66.6139 73.3561 67.0755 73.6711C67.2246 73.7683 67.3529 73.8941 67.453 74.0412C67.5531 74.1884 67.6231 74.3538 67.6589 74.5282C67.718 74.8877 67.6343 75.2561 67.4255 75.5548C67.2238 75.8485 66.9157 76.0521 66.5664 76.1227C66.2172 76.1932 65.8542 76.1251 65.5542 75.9328C65.4251 75.8551 65.3084 75.7633 65.1778 75.6731C65.0801 75.6049 64.9805 75.5395 64.8791 75.4771C64.1907 74.9869 63.357 74.7433 62.513 74.7856C61.669 74.828 60.8639 75.1538 60.228 75.7104C60.0946 75.8507 59.9334 75.9614 59.7546 76.0355C59.5758 76.1096 59.3834 76.1454 59.1899 76.1406C58.9964 76.1358 58.8061 76.0904 58.6312 76.0075C58.4564 75.9245 58.3008 75.8058 58.1747 75.6591C58.0513 75.5167 57.9589 75.3503 57.9035 75.1702C57.8481 74.9902 57.8308 74.8006 57.8527 74.6136C57.8747 74.4265 57.9354 74.2461 58.031 74.0838C58.1266 73.9215 58.255 73.7809 58.408 73.6711C59.3893 72.7838 60.6255 72.2285 61.9407 72.0844C62.1592 72.0605 62.3622 71.9596 62.5131 71.7997C62.5623 71.7385 62.5971 71.6671 62.6152 71.5906C62.6332 71.5142 62.6339 71.4347 62.6173 71.3579C62.5612 71.2304 62.4791 71.116 62.3762 71.0219C62.2734 70.9279 62.1521 70.8564 62.02 70.8119L61.3698 70.5133C60.7867 70.26 60.2104 69.9913 59.6415 69.7075C59.4439 69.6225 59.2657 69.4979 59.118 69.3414C58.9703 69.1849 58.8563 68.9998 58.7829 68.7975C58.7319 68.6294 58.7162 68.4526 58.7365 68.2781C58.7568 68.1036 58.8129 67.9352 58.9011 67.7833C58.9887 67.6217 59.1074 67.479 59.2503 67.3633C59.3932 67.2477 59.5576 67.1615 59.7339 67.1096C59.9103 67.0577 60.0951 67.0412 60.2779 67.061C60.4607 67.0807 60.6377 67.1364 60.7989 67.2248C60.9054 67.2544 61.0185 67.2501 61.1224 67.2124C62.0468 66.3631 62.7387 65.2916 63.1324 64.0997C63.5261 62.9077 63.6085 61.6349 63.3718 60.4022C62.6255 60.421 61.8848 60.2705 61.205 59.962C60.5253 59.6535 59.9243 59.1951 59.4471 58.6211L59.3164 58.7517C59.0567 59.0239 58.8233 59.2853 58.5884 59.5451L58.3427 59.8173C57.7118 60.7399 56.7555 61.39 55.6655 61.6373C55.8335 61.8084 55.9767 61.9639 56.1073 62.1195C56.8975 63.1123 57.409 64.2975 57.5894 65.5534C57.7699 66.8093 57.6127 68.0907 57.134 69.2657C57.0272 69.5125 56.9696 69.7778 56.9644 70.0466C57.0033 71.0468 57.0562 72.061 57.1075 73.0613C57.1589 74.217 57.2242 75.3744 57.2631 76.5302C57.2533 76.6388 57.2766 76.7479 57.3299 76.8431C57.3832 76.9384 57.464 77.0152 57.5618 77.0637C58.0953 77.4013 58.6273 77.7653 59.1484 78.1168L60.004 78.7017C60.5478 79.0364 61.1832 79.1915 61.8201 79.1448C62.4569 79.0982 63.0629 78.8523 63.5522 78.4419C64.0469 78.0565 64.573 77.7131 65.1249 77.4153L65.5293 77.1819C65.8264 76.9999 66.1267 76.8428 66.4378 76.6748C66.9687 76.4132 67.4774 76.1088 67.9591 75.7648C68.9718 75.0104 69.9471 74.1657 70.8835 73.3475L71.442 72.8808C71.7267 72.6123 71.9836 72.3157 72.2089 71.9957C72.3644 71.8188 72.476 71.6078 72.5347 71.3796C72.5933 71.1515 72.5973 70.9128 72.5464 70.6828C72.5017 70.4912 72.4958 70.2924 72.5292 70.0985C72.5626 69.9045 72.6346 69.7192 72.7409 69.5535C72.8451 69.4034 72.9781 69.2755 73.1322 69.1772C73.2863 69.079 73.4584 69.0123 73.6384 68.9811C73.8179 68.9448 74.0029 68.9452 74.1822 68.9821C74.3616 69.0191 74.5316 69.0919 74.6821 69.1963C74.8326 69.3006 74.9605 69.4342 75.0581 69.5891C75.1557 69.7441 75.2209 69.9171 75.25 70.0979C75.2889 70.2939 75.3278 70.3842 75.432 70.4246C75.534 70.4514 75.6411 70.4514 75.7431 70.4246L75.9764 70.3842C76.1042 70.3784 76.2307 70.3564 76.3529 70.3188L76.7698 70.1633C77.8353 69.7479 78.9273 69.3326 79.9929 68.8768C80.788 68.4604 81.4654 67.8506 81.9629 67.1036C82.4604 66.3565 82.7619 65.4963 82.8395 64.6022C82.8411 64.5014 82.8317 64.4007 82.8115 64.3019ZM80.5513 38.0488C80.2537 37.4529 79.8296 36.9291 79.3086 36.514C78.7877 36.099 78.1824 35.8025 77.5351 35.6455C76.8329 35.4571 76.105 35.3825 75.3791 35.4246C74.3501 35.5647 73.33 35.7642 72.324 36.0219L71.7018 36.1651C69.3229 36.6244 66.8738 36.5756 64.5151 36.0219C62.8026 35.7188 61.157 35.1159 59.654 34.2408C58.324 33.4544 56.851 32.9403 55.3205 32.7285C53.79 32.5167 52.2326 32.6115 50.7391 33.0073C49.2307 33.3756 47.672 33.4939 46.1253 33.3573C44.9232 33.2631 43.7855 32.7756 42.8883 31.97C41.9911 31.1644 41.3842 30.0857 41.1615 28.9006C41.0493 28.196 41.0014 27.4827 41.0184 26.7695C41.0184 26.5486 41.0527 26.6979 41.0527 26.4771H38.2184C38.2925 28.1639 38.6003 29.8324 39.1331 31.4346C39.4699 32.6367 40.2259 33.6784 41.2642 34.3715C42.6235 35.2005 44.0944 35.8306 45.6322 36.2428C46.4831 36.5357 47.3901 36.6282 48.2826 36.5133C49.1751 36.3983 50.0291 36.079 50.778 35.5802C51.4554 35.0953 52.2504 34.801 53.0803 34.728C53.9101 34.6549 54.7443 34.8058 55.496 35.1648C57.0282 35.8928 58.5495 36.6971 60.0304 37.4639L60.6029 37.7751C60.8891 37.9182 60.914 37.9306 61.0695 37.8015C61.9485 37.1128 63.0214 36.7173 64.1371 36.6706C66.2193 36.5835 68.2964 36.9382 70.2318 37.7113C70.5325 37.8181 70.8576 37.836 71.1682 37.7626C72.4829 37.3768 73.854 37.219 75.222 37.2959C75.858 37.3327 76.4802 37.4965 77.0519 37.7775C77.6237 38.0586 78.1333 38.4512 78.5509 38.9324C79.4864 40.1668 79.9304 41.7044 79.7969 43.2475C79.7868 43.7941 79.8128 44.3408 79.8747 44.8839C79.9011 45.2215 79.9524 45.5466 80.0053 45.8842C80.2138 46.8334 80.227 47.8152 80.0442 48.7697C79.3121 51.2814 78.0034 53.5874 76.2222 55.5037C76.019 55.7183 75.7563 55.8673 75.4678 55.9315C75.197 56.004 74.9098 55.9847 74.6511 55.8766C74.3925 55.7685 74.1769 55.5778 74.0382 55.3342C73.9269 55.1549 73.8606 54.9513 73.8449 54.7409C73.8292 54.5305 73.8645 54.3193 73.948 54.1255C73.6794 54.4186 73.3783 54.68 73.0504 54.9048C72.678 55.1481 72.2869 55.3614 71.8807 55.5426C71.8029 55.5815 71.7127 55.6204 71.6333 55.6593C71.6473 55.6593 71.6473 55.6717 71.6598 55.6857C71.8333 55.9166 72.0247 56.1335 72.2322 56.3344C72.7758 56.8036 73.4169 57.1462 74.1091 57.3372C74.8013 57.5282 75.5274 57.5629 76.2347 57.4388C77.0213 57.447 77.7868 57.1838 78.4022 56.6937C79.0176 56.2035 79.4453 55.5163 79.6133 54.7477C79.8484 53.6811 79.9663 52.592 79.9649 51.4997C79.9677 50.5416 80.1712 49.5946 80.5622 48.7199C80.8705 48.1238 81.0851 47.4837 81.1984 46.8222C81.4146 45.2322 81.5362 43.6308 81.5624 42.0264C81.5645 40.637 81.2162 39.2695 80.5498 38.0504L80.5513 38.0488ZM76.9518 49.3157C77.2773 48.7148 77.4342 48.037 77.406 47.3542C77.3559 46.7946 77.2993 46.2356 77.2364 45.6773C77.0903 44.6221 77.0165 43.5583 77.0155 42.4931C77.0512 42.1137 76.9969 41.7313 76.8568 41.3769C76.7168 41.0225 76.4951 40.7062 76.2098 40.4537C75.8544 40.2227 75.4546 40.0688 75.0361 40.0018C74.6176 39.9348 74.1897 39.9563 73.78 40.0648C74.3446 40.7736 74.7136 41.6178 74.8503 42.5136C74.9871 43.4093 74.8867 44.3253 74.5593 45.1702C74.4788 45.6547 74.501 46.1508 74.6247 46.6262L74.6635 46.8595C74.7289 47.2111 74.8191 47.5611 74.9109 47.9126C75.0337 48.348 75.1293 48.7907 75.1971 49.2379C75.3733 50.3825 75.261 51.5529 74.8704 52.643C75.586 51.565 76.314 50.4606 76.9502 49.3157H76.9518ZM74.8844 73.1515C72.8478 75.401 70.538 77.3873 68.0089 79.0642C69.7492 79.2395 71.4911 78.7475 72.8824 77.6875C74.3037 76.5127 75.3291 74.9291 75.8193 73.1515H74.8844ZM72.0642 47.8644C71.6488 46.5731 71.6352 45.186 72.0253 43.8868C72.1958 43.4598 72.2153 42.9874 72.0807 42.5478C71.946 42.1082 71.6653 41.7278 71.2849 41.4695C70.3806 40.8005 69.3763 40.2786 68.3091 39.9233C68.0578 39.8318 67.8018 39.754 67.5422 39.6899C67.1012 39.586 66.6545 39.5081 66.2044 39.4566C65.4479 39.3786 64.6852 39.3786 63.9287 39.4566C63.8148 39.4709 63.7021 39.4928 63.5911 39.5219C63.381 39.5679 63.1794 39.6466 62.9938 39.7553C62.5222 40.0444 62.1818 40.5058 62.0449 41.0417C62.0175 41.185 62.0453 41.3334 62.1227 41.457C62.8903 42.2533 63.398 43.2639 63.5787 44.3551C63.7103 44.9701 63.8882 45.5743 64.1107 46.1626C64.1884 46.3571 64.2538 46.5515 64.3191 46.7335C64.4093 47.0073 64.5135 47.2671 64.6302 47.5393C64.8499 48.047 65.0238 48.5733 65.1498 49.1119C65.1853 49.7117 65.3544 50.2959 65.6445 50.822C65.9346 51.3482 66.3384 51.8029 66.8267 52.1531C66.9543 52.2371 67.0637 52.346 67.1484 52.4732C67.2331 52.6004 67.2914 52.7433 67.3198 52.8935C67.3536 53.0777 67.3504 53.2668 67.3104 53.4498C67.2703 53.6327 67.1942 53.8059 67.0864 53.9591C66.8876 54.2446 66.5875 54.4438 66.2471 54.516C65.9068 54.5883 65.5516 54.5282 65.254 54.3479C64.5768 53.9328 63.9937 53.3809 63.5418 52.7276C63.09 52.0744 62.7793 51.334 62.6298 50.5539C62.4696 49.8887 62.2696 49.2337 62.0309 48.5924C61.9165 48.2825 61.8087 47.9703 61.7073 47.6559C61.6295 47.3962 61.5378 47.1364 61.4475 46.8782C61.205 46.2731 61.0221 45.6459 60.9015 45.0053C60.8555 44.5569 60.6982 44.1271 60.4439 43.755C60.1897 43.3828 59.8465 43.0801 59.4455 42.8742C58.5523 42.41 57.5584 42.1732 56.5518 42.1846C55.5452 42.196 54.557 42.4553 53.6744 42.9395C53.1381 43.1537 52.6846 43.5343 52.3808 44.0255C52.077 44.5167 51.9388 45.0924 51.9867 45.6679C51.9992 46.4647 52.0688 47.2596 52.1951 48.0464C52.3432 49.6188 53.0211 51.0942 54.1178 52.2308C54.2499 52.346 54.3563 52.4876 54.43 52.6466C54.5037 52.8056 54.5431 52.9784 54.5456 53.1536C54.548 53.3288 54.5136 53.5026 54.4445 53.6636C54.3753 53.8247 54.273 53.9693 54.1442 54.0882C54.0237 54.2314 53.8748 54.3482 53.7069 54.4312C53.5391 54.5142 53.3559 54.5616 53.1689 54.5704H53.13C52.8138 54.5655 52.5116 54.4397 52.2853 54.2188C51.674 53.6449 51.1453 52.9889 50.7142 52.2697C50.3885 51.6412 50.1103 50.9891 49.882 50.3191C49.8531 50.2512 49.8271 50.1822 49.8042 50.1122C49.0554 51.3047 47.9008 52.1865 46.5531 52.5948C46.489 52.6429 46.4434 52.7115 46.424 52.7893L46.3991 53.0382C46.3297 53.7026 46.312 54.3714 46.3462 55.0386C46.3219 56.0339 46.6584 57.0044 47.2937 57.7709C47.929 58.5374 48.8202 59.0482 49.8027 59.2091C51.6866 59.5222 53.6175 59.3933 55.4431 58.8326C55.482 58.8326 55.5349 58.7937 55.6764 58.6506C56.0809 58.2213 56.4698 57.7795 56.8742 57.3517C57.4187 56.7668 57.9631 56.1695 58.5231 55.5706C58.8093 55.2719 58.7704 55.0775 58.6787 54.9484C58.5652 54.7474 58.4568 54.5435 58.3535 54.3371C58.0985 53.7654 57.747 53.2418 57.3144 52.7893C56.75 52.2515 56.3009 51.6044 55.9947 50.8873C55.6885 50.1703 55.5315 49.3985 55.5333 48.6188C55.4782 48.1068 55.3 47.6158 55.0138 47.1877C54.3657 46.2971 54.0528 45.2064 54.1302 44.1077C54.1231 43.9137 54.157 43.7205 54.2297 43.5405C54.3023 43.3605 54.4121 43.1978 54.5518 43.063C54.6915 42.9283 54.8581 42.8245 55.0406 42.7585C55.2231 42.6924 55.4175 42.6656 55.6111 42.6797C56.0544 42.7046 56.8198 42.9519 56.9115 44.2508C56.9262 44.719 57.06 45.1757 57.3004 45.5777C57.9503 46.454 58.3054 47.5139 58.3147 48.6048C58.2923 49.0071 58.3574 49.4095 58.5057 49.7841C58.6539 50.1588 58.8817 50.4968 59.1733 50.7748C59.8082 51.4389 60.3618 52.1762 60.8222 52.9713C61.1295 53.3901 61.3392 53.8722 61.4361 54.3825C61.533 54.8928 61.5146 55.4183 61.3822 55.9206C61.2127 56.4417 61.3822 56.7139 61.7867 57.1028C62.0414 57.35 62.356 57.5267 62.6996 57.6156C63.0432 57.7045 63.404 57.7026 63.7467 57.6099C65.6977 57.1615 67.4202 56.0215 68.5953 54.4008C68.8916 54.0423 69.096 53.6169 69.1909 53.1615C69.2857 52.7062 69.2682 52.2345 69.1398 51.7875C68.8233 50.8132 68.3919 49.8801 67.8549 49.0077C67.4792 48.4892 67.2235 47.8935 67.1065 47.2639C66.9894 46.6344 67.014 45.9867 67.1782 45.3677C67.3381 44.9259 67.3826 44.4505 67.3075 43.9867C67.2323 43.5228 67.0401 43.0858 66.7489 42.7171C66.6155 42.5765 66.5135 42.4091 66.4497 42.2261C66.386 42.0431 66.3619 41.8486 66.3791 41.6555C66.3963 41.4625 66.4544 41.2753 66.5496 41.1064C66.6447 40.9376 66.7747 40.7909 66.9309 40.6762C67.0719 40.5636 67.2353 40.4822 67.4101 40.4374C67.5849 40.3926 67.7673 40.3855 67.9451 40.4164C68.161 40.4588 68.3659 40.5454 68.5468 40.6707C68.7278 40.7959 68.8809 40.9572 68.9967 41.1444C69.5253 41.8026 69.8818 42.5822 70.0339 43.4126C70.186 44.2431 70.1289 45.0984 69.8678 45.9013C69.7792 46.116 69.7447 46.3491 69.7675 46.5803C69.7903 46.8114 69.8696 47.0334 69.9984 47.2266C71.1347 48.6552 71.826 50.3861 71.9864 52.2044C72.3219 51.8163 72.4947 51.3136 72.4687 50.8013C72.4497 49.8098 72.314 48.8241 72.0642 47.8644ZM64.7484 81.2622C64.561 81.2386 64.3708 81.2518 64.1884 81.3011C63.5258 81.4831 62.8507 81.6775 62.188 81.8719C62.0784 81.8927 61.9731 81.9322 61.8769 81.9886C61.6972 82.2257 61.532 82.4735 61.3822 82.7306L61.3698 82.7431C62.1445 82.8792 62.9401 82.8377 63.6965 82.6216C64.4529 82.4055 65.1503 82.0204 65.7362 81.4955C65.4095 81.4074 65.0801 81.3295 64.7484 81.2622ZM56.8602 79.8964C56.8448 79.9408 56.8272 79.9844 56.8073 80.0271C56.6853 80.3952 56.5057 80.7417 56.2753 81.0537C55.47 82.0764 54.5836 83.0326 53.6247 83.9128C52.9566 84.5127 52.1608 84.9526 51.2975 85.1993C50.1278 85.5104 48.958 85.7188 47.8147 85.9273L47.3604 86.0051C49.0792 86.6558 50.9692 86.6969 52.7147 86.1217C54.031 85.7803 55.265 85.1774 56.3434 84.3489C57.4217 83.5205 58.3223 82.4834 58.9913 81.2995L56.8602 79.8964ZM53.8689 63.7435C53.4668 63.2453 52.9635 62.8382 52.3924 62.5491C51.8212 62.26 51.1951 62.0956 50.5555 62.0666C49.517 62.0485 48.4947 61.8055 47.5591 61.3544C46.6235 60.9032 45.7968 60.2546 45.136 59.4533C45.0452 59.7386 44.868 59.9886 44.6289 60.1688C44.4427 60.2913 44.2292 60.366 44.0073 60.3864C43.7853 60.4067 43.5618 60.3721 43.3564 60.2855C40.7114 59.3961 38.486 57.5644 37.1047 55.1397C36.9102 54.7757 36.7795 54.7104 36.7158 54.6979C36.5585 54.7197 36.4147 54.7983 36.3113 54.9188L35.91 55.2564C35.0024 56.0036 34.1546 56.8207 33.3744 57.7002C31.9589 59.4159 31.9589 60.4939 33.3495 62.3388C33.7991 62.8904 34.1026 63.5463 34.232 64.2461C34.3614 64.9459 34.3126 65.6669 34.09 66.3428C33.7485 67.4342 33.7991 68.6106 34.2331 69.6686C34.8231 71.1388 35.6926 72.4806 36.7935 73.6197C36.8959 73.7607 37.0346 73.8713 37.1949 73.9398C37.3551 74.0083 37.5309 74.032 37.7035 74.0086C39.0294 73.8848 40.3616 74.1663 41.524 74.8159L41.4462 74.2046C41.2912 73.2504 41.2085 72.2858 41.1989 71.3191C41.1806 70.2379 41.4882 69.1763 42.0816 68.2724C42.6751 67.3684 43.5269 66.6641 44.5262 66.2511C44.6879 66.1589 44.8663 66.0998 45.051 66.0774C45.2358 66.055 45.4231 66.0696 45.6022 66.1205C45.7812 66.1713 45.9483 66.2573 46.0936 66.3735C46.239 66.4897 46.3598 66.6337 46.4489 66.7971C46.5351 66.9521 46.5888 67.1231 46.6068 67.2996C46.6247 67.4762 46.6064 67.6545 46.5531 67.8237C46.3952 68.2237 46.087 68.5459 45.6944 68.7213C45.1346 68.9642 44.6634 69.3739 44.3449 69.8945C44.0264 70.415 43.8763 71.0211 43.9149 71.6302C43.9688 73.5434 44.4809 75.4158 45.4082 77.0902C45.4487 77.115 45.6307 77.2193 45.6944 77.1804C46.2235 77.1801 46.7403 77.0214 47.1783 76.7247C47.6164 76.4281 47.9556 76.0071 48.1522 75.5159C48.2677 75.3148 48.3379 75.091 48.3581 74.8599C48.3782 74.6289 48.3478 74.3962 48.2689 74.1782C47.7828 73.1147 47.5465 71.9542 47.5781 70.7854C47.6096 69.6166 47.9082 68.4705 48.4509 67.4348C48.3078 67.3431 48.1507 67.2528 48.0091 67.1626C47.5192 66.8431 47.0113 66.5523 46.4878 66.2915C46.0216 66.0465 45.5102 65.8994 44.9851 65.8593C44.46 65.8191 43.9322 65.8868 43.4342 66.0582C42.9365 66.2757 42.4877 66.5915 42.1149 66.9865C41.742 67.3816 41.4527 67.8478 41.2642 68.3573C41.0461 68.9371 40.7345 69.4773 40.3418 69.9564C40.2732 70.0351 40.1948 70.1046 40.1084 70.1633C39.8849 70.3117 39.6317 70.4094 39.3664 70.4495C39.2466 70.4734 39.1237 70.4781 39.0024 70.4635C38.819 70.4492 38.6418 70.3909 38.4858 70.2934C38.3298 70.1959 38.1996 70.0621 38.1064 69.9035C37.99 69.7018 37.9233 69.4752 37.912 69.2425C37.9006 69.0099 37.9449 68.7778 38.0411 68.5657C38.1578 68.2671 38.3149 67.9808 38.458 67.6946C38.6904 67.2874 38.8777 66.856 39.0164 66.4082C39.2863 65.454 39.2481 64.439 38.9073 63.5077C38.5666 62.5765 37.9406 61.7766 37.1187 61.2219C36.9544 61.1179 36.8142 60.9802 36.7072 60.8179C36.6003 60.6557 36.529 60.4725 36.4982 60.2806C36.4673 60.0887 36.4776 59.8924 36.5283 59.7048C36.5791 59.5171 36.6691 59.3424 36.7924 59.1922C36.9158 59.042 37.0697 58.9197 37.2438 58.8334C37.418 58.7471 37.6085 58.6989 37.8028 58.6918C37.997 58.6847 38.1906 58.719 38.3706 58.7923C38.5506 58.8657 38.7129 58.9764 38.8469 59.1173C40.3842 60.2538 41.4446 61.9208 41.8227 63.7948C43.1487 63.0975 44.6864 62.9174 46.1378 63.2893C47.6645 63.6751 49.0796 64.4136 50.2693 65.4453C50.4902 65.6164 50.5695 65.6273 50.7904 65.5106C51.1307 65.3274 51.5087 65.2252 51.8949 65.2119C52.2036 65.2137 52.5009 65.3285 52.7308 65.5345C52.9606 65.7406 53.1071 66.0237 53.1424 66.3304C53.2094 66.6673 53.1442 67.0171 52.9603 67.3073C52.7764 67.5975 52.4879 67.8058 52.1547 67.8891C51.8038 68.0014 51.4815 68.1884 51.21 68.4374C50.9385 68.6863 50.7242 68.9912 50.582 69.3311C50.2343 70.2287 50.2249 71.2223 50.5555 72.1264C50.6473 72.0875 50.7251 72.0486 50.8153 72.0082C51.0445 71.9012 51.2844 71.8188 51.5309 71.7624C51.8677 71.6927 52.2183 71.7531 52.5124 71.9315C52.8065 72.1098 53.0221 72.3929 53.116 72.7237C53.1972 73.0463 53.1639 73.3871 53.0218 73.6878C52.8796 73.9885 52.6375 74.2306 52.3367 74.3726C51.9606 74.5682 51.6319 74.8438 51.3738 75.1799C51.1555 75.5038 50.9769 75.8527 50.8418 76.2191L50.7251 76.5053C50.4309 77.2497 49.9736 77.9187 49.3867 78.463C48.7998 79.0073 48.0984 79.4131 47.334 79.6506C46.2604 79.9891 45.1125 80.0135 44.0255 79.7211C42.9385 79.4287 41.9577 78.8316 41.1989 78.0002C40.729 77.5183 40.1527 77.1534 39.5162 76.9345C38.8797 76.7157 38.2008 76.6491 37.534 76.7402C36.1297 76.9879 34.8111 77.5873 33.7011 78.4824C33.2718 78.7671 32.83 79.0673 32.3742 79.3395L32.466 79.5339C33.1955 79.2892 33.9584 79.158 34.7278 79.1451C35.0316 79.1483 35.3349 79.1696 35.6362 79.2088C37.8709 79.544 39.9608 80.5192 41.6531 82.0166C42.5577 82.7501 43.6739 83.1738 44.8373 83.2253C45.584 83.304 46.3361 83.3171 47.0851 83.2642C48.3895 83.2917 49.6803 82.995 50.8418 82.4007C52.0032 81.8064 52.999 80.9331 53.7398 79.8591C54.0907 79.417 54.3116 78.8859 54.3775 78.3253L54.39 78.0002C54.4289 76.3513 54.4802 74.6479 54.4413 72.985C54.426 72.5244 54.3912 72.0646 54.3371 71.6068C54.0858 70.2122 54.2347 68.7748 54.7664 67.4613V67.3711C54.7771 67.3284 54.7813 67.2843 54.7789 67.2404C54.8795 66.6263 54.8505 65.9979 54.6937 65.3957C54.537 64.7935 54.2561 64.2307 53.8689 63.7435ZM43.5773 53.1502L40.0415 54.6591C41.1025 56.019 42.5198 57.0582 44.1358 57.6613C43.6343 56.2136 43.445 54.6765 43.5773 53.1502ZM48.4244 43.6395C47.4446 42.9792 46.3995 42.4215 45.3055 41.9751C44.7859 41.7767 44.2512 41.6207 43.7064 41.5084C43.0726 41.369 42.4514 41.1775 41.8491 40.9359C40.35 40.2938 38.6914 40.1214 37.0922 40.4413C36.1029 40.6825 35.0707 40.687 34.0794 40.4546C33.088 40.2222 32.1654 39.7593 31.3864 39.1035C31.2285 39.0011 31.0424 38.951 30.8544 38.9604C30.7802 38.9627 30.7063 38.9716 30.6335 38.9868C29.9996 39.1732 29.3825 39.4125 28.7887 39.7024C28.3555 39.8221 27.9865 40.1066 27.7606 40.495C27.5346 40.8835 27.4698 41.345 27.58 41.7806C27.7777 42.7027 28.0968 43.5946 28.5289 44.4328C29.0683 45.504 29.2415 46.7226 29.022 47.9017C28.8004 49.1735 28.8316 50.4765 29.1138 51.7362C29.3471 52.867 29.9195 53.3337 30.9851 53.2699C31.9665 53.1865 32.9322 52.972 33.8567 52.6322C35.0719 52.1897 36.3593 51.9786 37.6522 52.0099L37.6647 52.0224C38.9397 52.1374 40.2165 51.8214 41.2907 51.1248C42.1722 50.6174 43.1606 50.3238 44.1762 50.2677L44.8389 50.1899C45.4428 50.1439 46.0242 49.941 46.5256 49.6013C47.0271 49.2616 47.4312 48.797 47.698 48.2533C47.9319 47.8248 48.2298 47.4345 48.5815 47.0959C48.7247 46.9528 48.8538 46.8113 48.9844 46.6542L49.14 46.4986C49.1787 46.4635 49.2136 46.4243 49.2442 46.3819C49.4098 45.8961 49.4198 45.3707 49.2729 44.8789C49.126 44.3871 48.8294 43.9533 48.4244 43.6379V43.6395ZM45.0069 45.8484C44.7746 46.1584 44.4289 46.3637 44.0455 46.4193C43.889 46.439 43.73 46.4274 43.578 46.3849C43.4261 46.3424 43.2841 46.27 43.1604 46.1719C42.7451 45.8344 42.4449 45.8608 41.874 46.2637C41.1734 46.807 40.3302 47.1355 39.4467 47.2092C38.5631 47.2829 37.6772 47.0988 36.8962 46.6791C35.9473 46.2124 35.364 46.3291 34.818 47.0835C34.1863 48.0253 33.6382 49.0205 33.18 50.0577C32.8284 50.7982 32.3867 51.1762 31.8422 51.1762C31.6876 51.1745 31.5343 51.1483 31.388 51.0984C31.211 51.0468 31.0466 50.9589 30.9055 50.8402C30.7643 50.7216 30.6495 50.5748 30.5682 50.4093C30.4857 50.2063 30.4455 49.9886 30.45 49.7695C30.4546 49.5505 30.5038 49.3347 30.5947 49.1353C30.9635 48.1987 31.3932 47.2873 31.8811 46.4068C31.9578 46.3044 32.0015 46.1811 32.0062 46.0532C32.0109 45.9253 31.9765 45.7991 31.9075 45.6913C31.3468 44.5469 30.4423 43.6065 29.3207 43.0017C29.1522 42.9292 29.0001 42.8233 28.8737 42.6905C28.7473 42.5576 28.6491 42.4005 28.585 42.2286C28.5209 42.0568 28.4923 41.8737 28.501 41.6905C28.5096 41.5073 28.5552 41.3277 28.6351 41.1626C28.7151 40.9975 28.8276 40.8503 28.966 40.7299C29.1043 40.6095 29.2656 40.5184 29.4402 40.462C29.6147 40.4057 29.7988 40.3852 29.9815 40.402C30.1641 40.4187 30.3415 40.4723 30.5029 40.5595C31.9505 41.2634 33.1575 42.38 33.9718 43.7686C34.0495 43.8853 34.1164 44.0019 34.1942 44.1202C34.8059 43.8201 35.4813 43.6728 36.1624 43.691C36.8435 43.7091 37.51 43.8922 38.1049 44.2244C38.4417 44.4198 38.8304 44.5071 39.2185 44.4746C39.6066 44.442 39.9753 44.2912 40.2749 44.0424C40.7313 43.6424 41.2842 43.3684 41.8789 43.2476C42.4737 43.1267 43.0896 43.1632 43.666 43.3533C44.0669 43.5081 44.44 43.7272 44.7704 44.0019C45.0457 44.2161 45.225 44.5305 45.2693 44.8764C45.3136 45.2223 45.2192 45.5718 45.0069 45.8484ZM33.9204 74.4908C33.5315 73.9697 33.1427 73.4502 32.7911 72.8917C32.0226 71.8587 31.5022 70.6626 31.2702 69.3961C31.0383 68.1296 31.1009 66.8268 31.4533 65.5884C31.5451 65.3024 31.5609 64.9974 31.4993 64.7035C31.4377 64.4095 31.3007 64.1366 31.1018 63.9115C30.3859 63.103 29.8932 62.1219 29.6722 61.0648C29.5475 60.1854 29.6104 59.2895 29.8568 58.4361C30.1032 57.5827 30.5275 56.7911 31.1018 56.1135V56.101L28.2691 55.4119C28.1649 55.7106 28.0482 56.0233 27.9424 56.3344C27.5924 57.2833 27.2269 58.2711 26.9687 59.2713C26.7678 59.9039 26.7581 60.5817 26.9407 61.2197C27.1234 61.8578 27.4902 62.4278 27.9953 62.8584C28.561 63.393 28.9509 64.0868 29.1134 64.8479C29.2759 65.6091 29.2034 66.4016 28.9053 67.1206C28.7644 67.4917 28.6556 67.8742 28.5802 68.2639C28.5503 68.4389 28.5644 68.6187 28.6215 68.7868C28.6785 68.9549 28.7766 69.1062 28.9069 69.2268C29.5202 69.8679 30.0559 70.5791 30.5029 71.3455C31.1521 72.696 32.2309 73.7929 33.5704 74.4644C33.726 74.5297 33.8691 74.5935 34.0371 74.6464L33.9204 74.4908Z" fill="#A57939"/>
<path d="M54.7805 67.2388C54.7827 67.2823 54.7785 67.3258 54.768 67.368V67.4597C54.2362 68.7733 54.0874 70.2106 54.3387 71.6053C54.39 72.0595 54.4289 72.5277 54.4429 72.982C54.4818 74.6464 54.4289 76.3482 54.39 77.9986L54.3776 78.3253C54.3113 78.8853 54.0905 79.4159 53.7398 79.8575C52.9992 80.9313 52.0037 81.8045 50.8425 82.3988C49.6813 82.9931 48.3908 83.2899 47.0867 83.2626C46.3377 83.3155 45.5856 83.3025 44.8389 83.2237C43.6754 83.1723 42.5592 82.7486 41.6547 82.0151C39.9623 80.5176 37.8725 79.5424 35.6378 79.2073C35.336 79.1675 35.0321 79.1456 34.7278 79.142C33.9588 79.1556 33.1965 79.2873 32.4676 79.5324L32.3758 79.338C32.83 79.0642 33.2718 78.7655 33.7011 78.4793C34.8116 77.584 36.1308 76.9846 37.5356 76.7371C38.2024 76.6461 38.8813 76.7126 39.5178 76.9314C40.1542 77.1503 40.7306 77.5152 41.2005 77.9971C41.9592 78.8282 42.9396 79.4251 44.0263 79.7175C45.113 80.0099 46.2607 79.9856 47.334 79.6475C48.0984 79.4106 48.7999 79.0053 49.3871 78.4615C49.9742 77.9178 50.4319 77.2493 50.7267 76.5053L50.8433 76.2191C50.9789 75.8521 51.158 75.5027 51.3769 75.1784C51.6348 74.843 51.9629 74.5679 52.3382 74.3726C52.639 74.2306 52.8812 73.9885 53.0233 73.6878C53.1655 73.3871 53.1988 73.0463 53.1176 72.7237C53.024 72.3923 52.8082 72.1086 52.5138 71.9299C52.2194 71.7512 51.8681 71.6908 51.5309 71.7608C51.2848 71.8179 51.0455 71.9008 50.8169 72.0082C50.7267 72.0471 50.6489 72.086 50.5571 72.1248C50.2268 71.2212 50.2362 70.2283 50.5836 69.3311C50.7256 68.9914 50.9397 68.6866 51.2109 68.4377C51.4821 68.1887 51.8041 68.0016 52.1547 67.8891C52.4886 67.8061 52.7777 67.5977 52.9619 67.3072C53.1461 67.0166 53.2114 66.6662 53.144 66.3288C53.1083 66.0225 52.9617 65.7397 52.7319 65.534C52.5021 65.3282 52.2049 65.2137 51.8965 65.212C51.5102 65.2252 51.1323 65.3274 50.792 65.5106C50.5711 65.6273 50.4933 65.6148 50.2725 65.4453C49.0824 64.4128 47.6668 63.6738 46.1393 63.2877C44.6878 62.9163 43.1501 63.097 41.8242 63.7948C41.4462 61.9208 40.3857 60.2539 38.8485 59.1173C38.7146 58.9759 38.5522 58.8646 38.372 58.7908C38.1918 58.717 37.998 58.6824 37.8034 58.6893C37.6088 58.6962 37.4179 58.7444 37.2434 58.8308C37.0689 58.9172 36.9148 59.0397 36.7913 59.1902C36.6678 59.3408 36.5778 59.5159 36.5272 59.7039C36.4766 59.8919 36.4666 60.0885 36.4978 60.2807C36.5291 60.4729 36.6009 60.6562 36.7085 60.8185C36.8161 60.9808 36.9569 61.1183 37.1218 61.222C37.9434 61.7765 38.5692 62.5762 38.9099 63.5071C39.2507 64.438 39.289 65.4527 39.0196 66.4066C38.8803 66.8546 38.6925 67.2859 38.4596 67.6931C38.3165 67.9793 38.1609 68.2655 38.0427 68.5642C37.9465 68.7763 37.9022 69.0083 37.9135 69.241C37.9249 69.4736 37.9916 69.7002 38.108 69.902C38.2013 70.0608 38.3317 70.1947 38.488 70.2922C38.6443 70.3897 38.8219 70.4479 39.0056 70.462C39.1268 70.477 39.2496 70.4728 39.3696 70.4495C39.6343 70.4092 39.887 70.3115 40.11 70.1633C40.1965 70.1042 40.2749 70.0341 40.3433 69.9548C40.7359 69.4762 41.0475 68.9366 41.2658 68.3573C41.4541 67.8475 41.7433 67.381 42.1162 66.9857C42.4891 66.5904 42.9379 66.2744 43.4358 66.0566C43.9338 65.8853 44.4616 65.8176 44.9867 65.8577C45.5118 65.8978 46.0232 66.0449 46.4893 66.29C47.0128 66.5507 47.5208 66.8416 48.0107 67.1611C48.1538 67.2513 48.3093 67.3431 48.4525 67.4333C47.9095 68.4691 47.6108 69.6155 47.5793 70.7846C47.5477 71.9537 47.7842 73.1145 48.2705 74.1782C48.3494 74.3963 48.3798 74.6289 48.3597 74.8599C48.3395 75.091 48.2693 75.3148 48.1538 75.516C47.9571 76.0071 47.618 76.4281 47.1799 76.7247C46.7419 77.0214 46.225 77.1801 45.696 77.1804C45.6322 77.2193 45.4502 77.1151 45.4113 77.0886C44.4843 75.4147 43.9722 73.5429 43.918 71.6302C43.8791 71.0209 44.0291 70.4144 44.3476 69.8936C44.6661 69.3727 45.1375 68.9628 45.6976 68.7197C46.0892 68.5444 46.3968 68.2228 46.5547 67.8237C46.608 67.6545 46.6263 67.4762 46.6083 67.2997C46.5904 67.1231 46.5367 66.9521 46.4505 66.7971C46.3614 66.6337 46.2406 66.4897 46.0952 66.3735C45.9498 66.2573 45.7827 66.1713 45.6037 66.1205C45.4247 66.0697 45.2373 66.055 45.0526 66.0774C44.8679 66.0999 44.6894 66.1589 44.5278 66.2511C43.5285 66.6641 42.6767 67.3685 42.0832 68.2724C41.4898 69.1763 41.1822 70.2379 41.2005 71.3191C41.2101 72.2853 41.2928 73.2493 41.4478 74.2031L41.5256 74.8144C40.363 74.1653 39.0308 73.8843 37.7051 74.0086C37.5325 74.0321 37.3567 74.0083 37.1964 73.9398C37.0362 73.8713 36.8975 73.7607 36.7951 73.6197C35.6942 72.4806 34.8246 71.1388 34.2347 69.6686C33.8 68.6097 33.7493 67.4321 34.0916 66.3397C34.3136 65.6643 34.3622 64.9438 34.2328 64.2446C34.1034 63.5455 33.8002 62.8901 33.3511 62.3388C31.9605 60.4924 31.9605 59.4144 33.3776 57.6986C34.1573 56.8197 35.0045 56.0032 35.9116 55.2564L36.3145 54.9173C36.4174 54.7971 36.5606 54.7185 36.7173 54.6964C36.7827 54.7104 36.9118 54.7742 37.1062 55.1382C38.4873 57.5635 40.7127 59.3957 43.358 60.2855C43.5636 60.3724 43.7874 60.4072 44.0096 60.3868C44.2319 60.3665 44.4456 60.2916 44.632 60.1688C44.8705 59.9884 45.0472 59.7384 45.1376 59.4533C45.7984 60.2547 46.6251 60.9033 47.5607 61.3544C48.4963 61.8056 49.5186 62.0486 50.5571 62.0666C51.1966 62.0956 51.8227 62.26 52.3939 62.5491C52.9651 62.8382 53.4684 63.2453 53.8705 63.7435C54.2574 64.2305 54.5383 64.793 54.695 65.395C54.8517 65.9969 54.8808 66.625 54.7805 67.2388ZM82.838 64.6006C82.7603 65.4948 82.4589 66.355 81.9614 67.102C81.4639 67.8491 80.7864 68.4589 79.9913 68.8753C78.9258 69.3311 77.8338 69.7464 76.7682 70.1633L76.3529 70.3188C76.2307 70.3564 76.1042 70.3784 75.9764 70.3842L75.7431 70.4231C75.6406 70.4501 75.5329 70.4501 75.4305 70.4231C75.3262 70.3842 75.2873 70.2924 75.2485 70.0964C75.2194 69.9156 75.1541 69.7425 75.0565 69.5876C74.9589 69.4327 74.8311 69.299 74.6806 69.1947C74.53 69.0904 74.36 69.0176 74.1807 68.9806C74.0013 68.9436 73.8164 68.9433 73.6369 68.9795C73.4571 69.0109 73.2853 69.0777 73.1315 69.176C72.9777 69.2742 72.845 69.402 72.7409 69.552C72.6341 69.7177 72.5618 69.9032 72.5281 70.0975C72.4944 70.2918 72.5001 70.4908 72.5449 70.6828C72.5956 70.9126 72.5914 71.151 72.5327 71.3788C72.4741 71.6067 72.3626 71.8175 72.2073 71.9942C71.982 72.3142 71.7251 72.6107 71.4404 72.8793L70.8805 73.346C69.9471 74.1642 68.9718 75.0104 67.956 75.7633C67.4753 76.1071 66.9676 76.4115 66.4378 76.6733C66.1267 76.8428 65.8265 76.9984 65.5278 77.1804L65.1233 77.4137C64.572 77.7116 64.0464 78.055 63.5522 78.4404C63.0631 78.8504 62.4574 79.0961 61.8208 79.1427C61.1843 79.1894 60.5492 79.0345 60.0056 78.7002L59.1469 78.1153C58.6258 77.7637 58.0938 77.3997 57.5602 77.0622C57.4627 77.0138 57.3821 76.9372 57.3288 76.8423C57.2755 76.7474 57.2521 76.6386 57.2616 76.5302C57.2227 75.3728 57.1573 74.2171 57.106 73.0597C57.0547 72.0595 57.0033 71.0453 56.9629 70.0451C56.9686 69.7761 57.0267 69.5109 57.134 69.2642C57.6127 68.0891 57.7699 66.8078 57.5895 65.5519C57.409 64.296 56.8975 63.1107 56.1073 62.118C55.9767 61.9624 55.8336 61.8068 55.664 61.6357C56.754 61.3885 57.7103 60.7384 58.3411 59.8157L58.5885 59.5435C58.8218 59.2837 59.0551 59.024 59.3165 58.7502L59.4456 58.6211C59.9229 59.1948 60.524 59.6529 61.2037 59.9611C61.8834 60.2694 62.6241 60.4196 63.3702 60.4006C63.6071 61.6332 63.525 62.906 63.1316 64.0979C62.7382 65.2899 62.0466 66.3614 61.1224 67.2108C61.018 67.2488 60.9043 67.2532 60.7973 67.2233C60.6361 67.1349 60.4589 67.0793 60.2761 67.0597C60.0933 67.04 59.9084 67.0567 59.732 67.1087C59.5557 67.1608 59.3913 67.2472 59.2485 67.3629C59.1056 67.4787 58.987 67.6215 58.8996 67.7833C58.8118 67.9351 58.7562 68.1033 58.7361 68.2775C58.716 68.4517 58.732 68.6282 58.7829 68.796C58.8561 68.9981 58.9699 69.1831 59.1173 69.3396C59.2648 69.4961 59.4426 69.6208 59.64 69.706C60.2 69.9922 60.7833 70.2504 61.3682 70.5117L62.0184 70.8104C62.1504 70.8547 62.2716 70.926 62.3745 71.0197C62.4773 71.1134 62.5595 71.2276 62.6158 71.3548C62.6329 71.4317 62.6325 71.5114 62.6147 71.5882C62.597 71.6649 62.5622 71.7366 62.5131 71.7982C62.3624 71.9586 62.1595 72.0601 61.9407 72.0844C60.625 72.2282 59.3882 72.7835 58.4065 73.6711C58.2535 73.7809 58.1251 73.9215 58.0295 74.0838C57.9339 74.2461 57.8731 74.4265 57.8512 74.6136C57.8292 74.8007 57.8465 74.9903 57.9019 75.1703C57.9574 75.3503 58.0497 75.5168 58.1731 75.6591C58.2992 75.8059 58.4546 75.9248 58.6294 76.0078C58.8043 76.0909 58.9946 76.1364 59.188 76.1414C59.3815 76.1464 59.5739 76.1107 59.7528 76.0368C59.9316 75.9628 60.093 75.8521 60.2264 75.712C60.8624 75.1554 61.6674 74.8296 62.5115 74.7872C63.3555 74.7449 64.1891 74.9885 64.8776 75.4786C64.9818 75.5424 65.086 75.6077 65.1778 75.6731C65.3069 75.7633 65.4251 75.8551 65.5542 75.9328C65.854 76.1253 66.2169 76.1936 66.5661 76.1234C66.9153 76.0531 67.2235 75.8498 67.4256 75.5564C67.6343 75.2577 67.718 74.8893 67.6589 74.5297C67.6231 74.355 67.553 74.1891 67.4526 74.0417C67.3522 73.8943 67.2235 73.7684 67.074 73.6711C66.6129 73.3561 66.1357 73.0653 65.6445 72.8C65.5013 72.7097 65.3582 72.632 65.2151 72.5402L65.3862 71.7624C65.5072 71.7596 65.6281 71.7633 65.7487 71.7733C66.2153 71.7733 66.6976 71.7873 67.1782 71.7484C68.4848 71.6488 69.7302 71.1541 70.749 70.3301C71.7679 69.506 72.5119 68.3915 72.8825 67.1346C73.2256 66.4751 73.7394 65.9197 74.3704 65.5265C75.0014 65.1333 75.7263 64.9167 76.4696 64.8993C76.8237 64.9573 77.1586 65.0999 77.4459 65.3149C77.7332 65.5299 77.9644 65.811 78.12 66.1344C78.3673 66.5233 79.1218 67.6806 80.2511 66.9791C80.5536 66.8021 80.7735 66.5123 80.8625 66.1733C80.9231 65.6199 80.7645 65.0649 80.4207 64.6271C79.806 63.5149 78.7791 62.6888 77.5611 62.3265C76.3432 61.9643 75.0317 62.095 73.9091 62.6904C73.7925 62.7293 73.6882 62.7806 73.5716 62.8335C73.5064 62.4975 73.3157 62.199 73.0383 61.9985C72.761 61.798 72.4177 61.7105 72.0782 61.754C71.6613 61.7928 70.9738 62.0277 70.8431 63.1586L70.8291 63.3795C70.7667 64.0786 70.6587 64.7728 70.5056 65.4577C70.4348 66.0851 70.2212 66.6879 69.8812 67.2198C69.5411 67.7517 69.0836 68.1985 68.5439 68.526C68.0041 68.8535 67.3965 69.0529 66.7677 69.1088C66.1388 69.1648 65.5055 69.0759 64.9164 68.8488C64.5615 68.7711 64.2106 68.6761 63.8649 68.5642C63.8488 68.5551 63.8305 68.5508 63.812 68.5517C63.9287 68.3557 64.0593 68.1737 64.176 67.9917C64.6189 67.3274 65.0225 66.6376 65.3847 65.926C66.1847 64.1934 66.4605 62.2646 66.178 60.3773C66.1002 59.8437 66.2045 59.6617 66.7225 59.3895C67.4645 58.9851 68.166 58.5184 68.894 58.0253C69.1273 57.8697 69.3482 57.7142 69.5956 57.5571C70.2917 58.3389 71.1359 58.975 72.0793 59.4286C73.0227 59.8822 74.0467 60.1444 75.092 60.1999C76.1373 60.2554 77.1833 60.1033 78.1695 59.7522C79.1557 59.4011 80.0625 58.858 80.8376 58.1544C81.3223 58.5137 81.7207 58.9767 82.0038 59.5095C82.2869 60.0423 82.4475 60.6316 82.474 61.2344C82.5269 61.8846 82.6047 62.5348 82.67 63.1835C82.7089 63.4822 82.7478 63.7948 82.7727 64.0935L82.8131 64.302C82.8321 64.4003 82.8405 64.5005 82.838 64.6006ZM72.4671 50.7997C72.4936 51.3119 72.3214 51.8145 71.9865 52.2028C71.826 50.3846 71.1347 48.6536 69.9985 47.2251C69.8696 47.0318 69.7903 46.8099 69.7675 46.5787C69.7447 46.3476 69.7792 46.1144 69.8678 45.8997C70.1289 45.0968 70.186 44.2416 70.0339 43.4111C69.8818 42.5806 69.5254 41.8011 68.9967 41.1428C68.8809 40.9557 68.7278 40.7944 68.5468 40.6691C68.3659 40.5439 68.1611 40.4573 67.9451 40.4148C67.7673 40.3839 67.585 40.3911 67.4101 40.4359C67.2353 40.4807 67.0719 40.562 66.9309 40.6746C66.7747 40.7894 66.6447 40.936 66.5496 41.1049C66.4545 41.2738 66.3964 41.4609 66.3791 41.654C66.3619 41.847 66.386 42.0415 66.4497 42.2245C66.5135 42.4076 66.6155 42.5749 66.7489 42.7155C67.0401 43.0843 67.2324 43.5213 67.3075 43.9851C67.3826 44.449 67.3381 44.9243 67.1782 45.3662C67.0137 45.985 66.989 46.6327 67.1058 47.2622C67.2225 47.8918 67.4779 48.4875 67.8533 49.0062C68.3909 49.8784 68.8228 50.8116 69.1398 51.786C69.2682 52.233 69.2857 52.7046 69.1909 53.16C69.096 53.6153 68.8916 54.0407 68.5953 54.3993C67.4202 56.0199 65.6977 57.16 63.7467 57.6084C63.4038 57.7013 63.0427 57.7034 62.6988 57.6145C62.3548 57.5256 62.04 57.3487 61.7851 57.1013C61.3807 56.7124 61.2127 56.4386 61.3807 55.9191C61.5133 55.4169 61.5319 54.8915 61.4353 54.3812C61.3387 53.8709 61.1292 53.3886 60.8222 52.9697C60.3618 52.1747 59.8083 51.4373 59.1733 50.7733C58.882 50.4951 58.6545 50.157 58.5065 49.7824C58.3586 49.4078 58.2936 49.0055 58.3162 48.6033C58.3073 47.5118 57.9522 46.4513 57.302 45.5746C57.0619 45.1731 56.928 44.7169 56.9131 44.2493C56.8198 42.9504 56.0544 42.7031 55.6127 42.6782C55.4191 42.6641 55.2247 42.6909 55.0422 42.757C54.8596 42.823 54.6931 42.9268 54.5534 43.0615C54.4136 43.1962 54.3039 43.3589 54.2312 43.5389C54.1586 43.7189 54.1247 43.9122 54.1318 44.1062C54.0544 45.2049 54.3673 46.2956 55.0153 47.1862C55.3015 47.6143 55.4798 48.1053 55.5349 48.6173C55.5329 49.3968 55.6896 50.1686 55.9955 50.8856C56.3015 51.6026 56.7503 52.2498 57.3145 52.7877C57.7474 53.2397 58.0994 53.7627 58.3551 54.334C58.4578 54.5424 58.562 54.7384 58.6787 54.9453C58.7705 55.0744 58.8093 55.2704 58.5231 55.5675C57.9647 56.1664 57.4187 56.7653 56.8742 57.3486C56.4698 57.778 56.0809 58.2197 55.678 58.6491C55.5349 58.7922 55.4836 58.8311 55.4447 58.8311C53.6191 59.3918 51.6881 59.5207 49.8042 59.2075C48.8212 59.047 47.9294 58.5361 47.2938 57.7692C46.6582 57.0023 46.3216 56.0313 46.3462 55.0355C46.312 54.3683 46.3297 53.6995 46.3991 53.0351L46.424 52.7862C46.4438 52.7082 46.49 52.6395 46.5547 52.5917C47.9009 52.1831 49.0543 51.302 49.8027 50.1106C49.8291 50.1884 49.8556 50.2537 49.8805 50.3175C50.1088 50.9876 50.387 51.6397 50.7127 52.2682C51.1438 52.9874 51.6725 53.6433 52.2838 54.2173C52.5107 54.4379 52.8135 54.5632 53.13 54.5673H53.1689C53.3558 54.5587 53.5389 54.5116 53.7068 54.4288C53.8746 54.3461 54.0235 54.2296 54.1442 54.0866C54.2733 53.9678 54.3758 53.823 54.4451 53.6618C54.5144 53.5007 54.5489 53.3267 54.5464 53.1513C54.5439 52.9758 54.5045 52.8029 54.4306 52.6438C54.3568 52.4846 54.2502 52.3429 54.1178 52.2277C53.0212 51.0912 52.3432 49.6157 52.1951 48.0433C52.0689 47.257 51.9993 46.4627 51.9867 45.6664C51.9386 45.0904 52.0768 44.5142 52.381 44.0227C52.6851 43.5312 53.1391 43.1504 53.676 42.9364C54.5587 42.4524 55.547 42.1934 56.5536 42.1823C57.5602 42.1711 58.554 42.4083 59.4471 42.8726C59.8478 43.0787 60.1906 43.3816 60.4446 43.7537C60.6986 44.1259 60.8557 44.5555 60.9016 45.0037C61.0217 45.6437 61.2041 46.2705 61.446 46.8751C61.5393 47.1348 61.6296 47.3946 61.7073 47.6528C61.8116 47.964 61.9158 48.2782 62.0324 48.5893C62.2707 49.2311 62.4702 49.8867 62.6298 50.5524C62.7793 51.3329 63.0901 52.0736 63.5423 52.7272C63.9944 53.3807 64.5779 53.9328 65.2556 54.348C65.5534 54.528 65.9086 54.5879 66.249 54.5153C66.5894 54.4428 66.8894 54.2433 67.088 53.9575C67.1957 53.8043 67.2719 53.6312 67.3119 53.4482C67.352 53.2653 67.3552 53.0762 67.3213 52.892C67.2928 52.7417 67.2343 52.5987 67.1493 52.4714C67.0643 52.3442 66.9546 52.2354 66.8267 52.1515C66.3388 51.8012 65.9352 51.3464 65.6453 50.8203C65.3555 50.2942 65.1867 49.71 65.1513 49.1104C65.0248 48.5717 64.8504 48.0454 64.6302 47.5377C64.515 47.2737 64.4112 47.0049 64.3191 46.732C64.2553 46.55 64.19 46.354 64.1122 46.1595C63.8893 45.5718 63.7109 44.9681 63.5787 44.3535C63.3985 43.2625 62.8913 42.2519 62.1242 41.4555C62.0469 41.3318 62.0191 41.1835 62.0465 41.0402C62.1834 40.5043 62.5238 40.0428 62.9953 39.7537C63.181 39.6451 63.3826 39.5664 63.5927 39.5204C63.7036 39.4912 63.8164 39.4694 63.9302 39.4551C64.6863 39.3771 65.4484 39.3771 66.2045 39.4551C66.6546 39.5066 67.1013 39.5845 67.5422 39.6884C67.8024 39.7524 68.0589 39.8302 68.3107 39.9217C69.3779 40.2771 70.3822 40.799 71.2864 41.468C71.6668 41.7262 71.9476 42.1066 72.0823 42.5463C72.2169 42.9859 72.1974 43.4583 72.0269 43.8853C71.6371 45.184 71.6507 46.5704 72.0658 47.8613C72.3146 48.8216 72.4493 49.8079 72.4671 50.7997Z" fill="#A57939"/>
<path d="M63.9286 39.4535C63.8148 39.4678 63.702 39.4896 63.5911 39.5188C63.7024 39.4944 63.8151 39.4773 63.9286 39.4675C64.6842 39.385 65.4463 39.3803 66.2028 39.4535C65.4468 39.3755 64.6847 39.3755 63.9286 39.4535ZM74.872 52.6446C75.262 51.5543 75.3737 50.3839 75.1971 49.2395C75.1292 48.7922 75.0337 48.3496 74.9108 47.9141C74.8157 47.5662 74.7332 47.2149 74.6635 46.861L74.6246 46.6277C74.5012 46.1528 74.479 45.6573 74.5593 45.1733C74.8872 44.3283 74.988 43.4121 74.8515 42.5161C74.715 41.62 74.3461 40.7754 73.7815 40.0664C74.191 39.9581 74.6186 39.9367 75.0368 40.0037C75.455 40.0707 75.8546 40.2245 76.2097 40.4553C76.4953 40.7079 76.7171 41.0245 76.8572 41.3792C76.9972 41.7338 77.0514 42.1165 77.0155 42.4961C77.0165 43.5613 77.0903 44.6252 77.2364 45.6804C77.3017 46.2388 77.3531 46.7973 77.406 47.3557C77.434 48.0392 77.2765 48.7176 76.9502 49.3188C76.314 50.4621 75.586 51.5666 74.872 52.6446ZM34.0402 74.6464C33.8706 74.5935 33.7291 74.5297 33.572 74.4644C32.2325 73.7929 31.1536 72.6959 30.5044 71.3455C30.057 70.579 29.5208 69.8678 28.9068 69.2268C28.7768 69.1063 28.6789 68.9553 28.6219 68.7875C28.5648 68.6196 28.5505 68.4402 28.5802 68.2655C28.6561 67.8757 28.7654 67.4932 28.9068 67.1221C29.2049 66.4032 29.2775 65.6106 29.115 64.8495C28.9525 64.0883 28.5625 63.3945 27.9968 62.8599C27.4917 62.4294 27.1249 61.8594 26.9423 61.2213C26.7596 60.5832 26.7693 59.9054 26.9702 59.2728C27.23 58.2726 27.5924 57.2848 27.9455 56.3359C28.0482 56.0248 28.1664 55.7121 28.2691 55.4135L31.1033 56.101V56.115C30.5288 56.7926 30.1042 57.5841 29.8575 58.4375C29.6109 59.2909 29.5477 60.1868 29.6722 61.0664C29.8936 62.1235 30.3869 63.1047 31.1033 63.913C31.3017 64.1381 31.4382 64.4108 31.4996 64.7045C31.5609 64.9981 31.545 65.3027 31.4533 65.5884C31.1006 66.827 31.0379 68.1301 31.2698 69.3969C31.5018 70.6637 32.0223 71.86 32.7911 72.8933C33.1426 73.4517 33.5315 73.9713 33.922 74.4908L34.0402 74.6464ZM58.9913 81.2995C58.3222 82.4834 57.4217 83.5204 56.3434 84.3489C55.265 85.1774 54.0309 85.7803 52.7146 86.1217C50.9692 86.6969 49.0792 86.6557 47.3604 86.005C47.516 85.9786 47.6591 85.9521 47.8146 85.9273C48.958 85.7188 50.1277 85.5104 51.2991 85.1993C52.1618 84.9524 52.957 84.5125 53.6246 83.9128C54.5836 83.0326 55.47 82.0764 56.2753 81.0537C56.5057 80.7417 56.6852 80.3952 56.8073 80.027C56.8271 79.9844 56.8448 79.9408 56.8602 79.8964L58.9913 81.2995ZM75.8208 73.1515C75.3306 74.9291 74.3053 76.5127 72.884 77.6875C71.4926 78.7475 69.7507 79.2395 68.0104 79.0641C70.5389 77.3877 72.8481 75.4019 74.8844 73.153L75.8208 73.1515ZM44.1373 57.6613C42.5213 57.0582 41.1041 56.019 40.0431 54.659L43.5788 53.1501C43.446 54.6764 43.6363 56.2135 44.1373 57.6613ZM65.7362 81.4955C65.1503 82.0204 64.4529 82.4055 63.6965 82.6216C62.9401 82.8377 62.1445 82.8792 61.3697 82.743L61.3822 82.7306C61.532 82.474 61.6972 82.2268 61.8768 81.9901C61.973 81.9332 62.0782 81.8932 62.188 81.8719C62.8506 81.6775 63.5257 81.483 64.1884 81.301C64.3708 81.2518 64.561 81.2386 64.7484 81.2621C65.0735 81.3244 65.3971 81.4037 65.7362 81.4955ZM45.0084 45.8484C44.7761 46.1584 44.4304 46.3637 44.0471 46.4193C43.8906 46.4392 43.7317 46.4278 43.5797 46.3856C43.4278 46.3434 43.2857 46.2713 43.162 46.1735C42.7466 45.8344 42.4464 45.8624 41.8755 46.2637C41.1749 46.807 40.3317 47.1355 39.4482 47.2092C38.5647 47.2829 37.6787 47.0987 36.8977 46.679C35.9488 46.2124 35.364 46.329 34.8195 47.0835C34.1879 48.0252 33.6398 49.0204 33.1815 50.0577C32.83 50.7997 32.3882 51.1761 31.8437 51.1761C31.6892 51.1745 31.5358 51.1482 31.3895 51.0984C31.2125 51.0468 31.0482 50.9588 30.907 50.8402C30.7659 50.7215 30.651 50.5748 30.5697 50.4093C30.4872 50.2063 30.447 49.9886 30.4516 49.7695C30.4561 49.5505 30.5053 49.3346 30.5962 49.1353C30.965 48.1987 31.3947 47.2872 31.8826 46.4068C31.9594 46.3044 32.003 46.181 32.0077 46.0532C32.0125 45.9253 31.978 45.799 31.9091 45.6913C31.3483 44.5469 30.4438 43.6065 29.3222 43.0017C29.1537 42.9292 29.0017 42.8233 28.8752 42.6904C28.7488 42.5576 28.6506 42.4005 28.5865 42.2286C28.5225 42.0567 28.4939 41.8737 28.5025 41.6905C28.5111 41.5073 28.5568 41.3277 28.6367 41.1626C28.7166 40.9975 28.8291 40.8503 28.9675 40.7299C29.1058 40.6095 29.2671 40.5184 29.4417 40.462C29.6162 40.4057 29.8004 40.3852 29.983 40.402C30.1657 40.4187 30.343 40.4723 30.5044 40.5595C31.9521 41.2634 33.159 42.38 33.9733 43.7686C34.0511 43.8853 34.118 44.0019 34.1957 44.1201C34.8074 43.8201 35.4828 43.6728 36.1639 43.691C36.845 43.7091 37.5115 43.8921 38.1064 44.2244C38.4433 44.4198 38.832 44.5071 39.22 44.4746C39.6081 44.442 39.9768 44.2912 40.2764 44.0424C40.7328 43.6424 41.2857 43.3684 41.8805 43.2476C42.4752 43.1267 43.0912 43.1631 43.6675 43.3533C44.0685 43.508 44.4415 43.7271 44.772 44.0019C45.0472 44.2161 45.2265 44.5305 45.2708 44.8764C45.3151 45.2223 45.2208 45.5717 45.0084 45.8484Z" fill="#A57939"/>
<path d="M85.5275 63.9769C85.4974 63.6373 85.4543 63.299 85.3984 62.9627C85.3137 62.5299 85.2658 62.0907 85.2553 61.6498C85.2859 60.5343 85.0438 59.4282 84.5502 58.4274C84.0566 57.4266 83.3263 56.5613 82.4226 55.9066C82.2671 55.79 82.2406 55.7511 82.292 55.5038L82.3573 55.1662C82.5689 54.2265 82.6949 53.2696 82.7338 52.3071C82.6411 51.2707 82.8582 50.2302 83.3575 49.3173C83.5374 49.0139 83.6568 48.6784 83.7091 48.3295C84.3774 45.6357 84.5143 42.8375 84.112 40.0913C83.8683 38.2857 83.1003 36.5912 81.9031 35.2178C80.9262 34.1816 79.7001 33.4131 78.3418 32.9856C76.9834 32.558 75.5382 32.4857 74.144 32.7755C73.4716 32.8751 72.8072 33.0228 72.156 33.2173C71.6893 33.3464 71.2071 33.4771 70.7404 33.5673C68.9256 33.8662 67.0694 33.8001 65.2804 33.3729L65.0735 33.334C63.8497 33.1564 62.6666 32.7652 61.5782 32.1782C59.9132 31.1401 58.0594 30.4414 56.1234 30.1221C54.1875 29.8028 52.2075 29.8693 50.2973 30.3178C49.2112 30.5715 48.0993 30.6978 46.984 30.6942C46.5339 30.7064 46.0862 30.6263 45.6683 30.4589C45.2504 30.2914 44.8712 30.0401 44.5542 29.7204C44.2599 29.3902 44.0366 29.003 43.898 28.5829C43.7594 28.1628 43.7085 27.7188 43.7484 27.2782C43.7609 27.1071 43.7609 26.9391 43.7873 26.7571C43.7897 26.6613 43.798 26.5657 43.8122 26.4709C43.8103 26.3879 43.802 26.3052 43.7873 26.2235C43.7258 25.8998 43.5532 25.6076 43.2993 25.3974C43.0455 25.1873 42.7262 25.0723 42.3966 25.0723C42.0671 25.0723 41.7478 25.1873 41.494 25.3974C41.2401 25.6076 41.0675 25.8998 41.006 26.2235C41.006 26.4055 41.0184 26.5875 41.0184 26.7695V26.796C41.0014 27.5004 41.0493 28.205 41.1615 28.9007C41.3839 30.086 41.9906 31.1651 42.8879 31.971C43.7851 32.7769 44.9229 33.2647 46.1253 33.3589C47.6721 33.495 49.2308 33.3762 50.7391 33.0073C52.2327 32.6118 53.7901 32.5173 55.3206 32.7293C56.8511 32.9414 58.3241 33.4557 59.654 34.2424C61.157 35.1175 62.8026 35.7204 64.5151 36.0235C66.8739 36.5767 69.323 36.6249 71.7018 36.1651L72.3255 36.0235C73.331 35.7653 74.3506 35.5653 75.3791 35.4247C76.1055 35.3824 76.8339 35.457 77.5366 35.6455C78.1838 35.803 78.7889 36.0997 79.3096 36.5151C79.8302 36.9304 80.254 37.4544 80.5513 38.0504C81.2183 39.2694 81.5671 40.6369 81.5655 42.0264C81.5388 43.6309 81.4167 45.2323 81.2 46.8222C81.0861 47.4838 80.871 48.1239 80.5622 48.72C80.1709 49.5952 79.9674 50.5427 79.9649 51.5013C79.9668 52.5935 79.8494 53.6826 79.6149 54.7493C79.4468 55.5179 79.0191 56.2051 78.4037 56.6953C77.7884 57.1854 77.0229 57.4486 76.2362 57.4404C75.5289 57.5645 74.8029 57.5298 74.1106 57.3388C73.4184 57.1478 72.7773 56.8052 72.2338 56.336C72.0262 56.1346 71.8348 55.9172 71.6613 55.6858C71.6489 55.6733 71.6489 55.6593 71.6349 55.6593C71.7126 55.6204 71.8044 55.5815 71.8822 55.5427C72.2884 55.3614 72.6796 55.1481 73.052 54.9049C73.3792 54.6805 73.6798 54.4195 73.948 54.1271C73.8648 54.3211 73.8297 54.5322 73.8456 54.7427C73.8616 54.9531 73.9282 55.1566 74.0398 55.3358C74.1785 55.5794 74.394 55.7701 74.6527 55.8782C74.9113 55.9863 75.1985 56.0056 75.4693 55.9331C75.7574 55.8682 76.0196 55.7187 76.2222 55.5038C78.0024 53.5882 79.3106 51.2834 80.0426 48.7729C80.2254 47.8183 80.2122 46.8366 80.0038 45.8873C79.9524 45.5498 79.9011 45.2247 79.8746 44.8871C79.8127 44.3434 79.7867 43.7962 79.7969 43.2491C79.9299 41.7058 79.4854 40.1681 78.5493 38.934C78.1319 38.453 77.6225 38.0605 77.0511 37.7794C76.4796 37.4984 75.8577 37.3345 75.222 37.2975C73.854 37.2206 72.4829 37.3784 71.1682 37.7642C70.8576 37.8376 70.5325 37.8197 70.2317 37.7129C68.2963 36.9403 66.2192 36.5862 64.1371 36.6738C63.0214 36.7204 61.9485 37.116 61.0695 37.8047C60.914 37.9338 60.8875 37.9213 60.6029 37.7782L60.0304 37.4671C58.5495 36.7002 57.0282 35.896 55.4944 35.1664C54.7428 34.8079 53.9088 34.6575 53.0793 34.7308C52.2497 34.8041 51.4551 35.0985 50.778 35.5833C50.0288 36.0824 49.1746 36.4019 48.2818 36.5168C47.389 36.6318 46.4818 36.5391 45.6306 36.246C44.0934 35.8336 42.623 35.2035 41.2642 34.3747C40.2259 33.6816 39.4699 32.6398 39.1331 31.4378C38.598 29.7478 38.2792 27.9968 38.1842 26.2267H38.1717C38.113 25.9127 37.9464 25.6292 37.7007 25.4251C37.4549 25.2211 37.1456 25.1094 36.8262 25.1094C36.5068 25.1094 36.1975 25.2211 35.9517 25.4251C35.706 25.6292 35.5394 25.9127 35.4806 26.2267C35.4632 26.2809 35.459 26.3385 35.4682 26.3947C35.4822 26.5502 35.4946 26.7198 35.5211 26.8769C35.6934 28.4585 35.9583 30.0287 36.3144 31.5793C36.5641 32.8162 37.1011 33.977 37.882 34.9681C38.6629 35.9592 39.6659 36.7529 40.81 37.2851C42.0859 37.8715 43.3965 38.3791 44.7346 38.8049C45.526 39.0668 46.3459 39.2329 47.1769 39.2995C48.8837 39.4306 50.5843 38.9769 51.9991 38.0131C52.354 37.7263 52.7829 37.546 53.2361 37.4931C53.6893 37.4403 54.1482 37.517 54.5595 37.7144C55.7946 38.3367 57.0173 38.9744 58.2369 39.6247C56.875 39.3844 55.4763 39.4586 54.1475 39.8414C52.8186 40.2242 51.5948 40.9056 50.5695 41.8335C48.9932 40.4951 47.1371 39.5267 45.1375 38.9993C44.8124 38.8967 44.4889 38.8313 44.1498 38.7535C43.701 38.6729 43.2616 38.5468 42.8384 38.3771C40.8052 37.5265 38.5617 37.3134 36.4046 37.7658C35.8436 37.8965 35.26 37.8965 34.6989 37.7657C34.1379 37.6348 33.6144 37.3767 33.1691 37.0113C32.6906 36.594 32.1053 36.3182 31.4789 36.2149C30.8524 36.1116 30.2096 36.1849 29.6224 36.4264C29.1153 36.6224 28.5957 36.8309 28.0886 37.0253L27.9455 37.0891C26.8171 37.4576 25.8742 38.2468 25.3127 39.2927C24.7512 40.3385 24.6145 41.5605 24.9309 42.7047C25.1692 43.6519 25.5088 44.5708 25.9435 45.4455C26.2957 46.078 26.424 46.8108 26.3075 47.5253C26.011 49.2122 26.0687 50.9424 26.4771 52.6058C26.5144 52.8453 26.478 53.0905 26.3729 53.3089C25.3677 55.0035 24.6477 56.8517 24.2417 58.7798C23.9849 59.7406 23.9753 60.7508 24.2138 61.7163C24.4523 62.6818 24.9313 63.5713 25.606 64.302C25.9648 64.5808 26.2146 64.9766 26.3118 65.4206C26.409 65.8645 26.3475 66.3285 26.138 66.7318C25.7417 67.5471 25.6498 68.4771 25.8789 69.3542C26.1079 70.2313 26.6428 70.9976 27.3871 71.5151C27.5734 71.6575 27.7206 71.8448 27.8149 72.0595C28.6012 73.909 29.9343 75.4739 31.6353 76.5442L30.31 77.4013C29.1542 78.1558 29.0111 78.6364 29.582 79.8715C29.764 80.2744 29.96 80.6898 30.142 81.0927L30.4655 81.7942C30.5422 82.0135 30.6674 82.2127 30.8317 82.377C30.9959 82.5412 31.1951 82.6664 31.4144 82.7431C31.6422 82.7956 31.8786 82.7984 32.1075 82.7515C32.3365 82.7045 32.5526 82.6088 32.7413 82.4709C33.5421 81.9578 34.5093 81.7718 35.4433 81.9513C37.5018 82.3424 39.3818 83.38 40.81 84.9131C42.173 86.3569 43.8427 87.4764 45.696 88.1891C47.325 88.8264 49.0554 89.1652 50.8044 89.1893C53.4242 89.1894 55.9548 88.238 57.9257 86.5122C58.3675 86.1482 58.7829 85.7578 59.2122 85.3689C59.3413 85.2382 59.472 85.1091 59.6151 84.98C60.4428 85.3984 61.3545 85.624 62.2818 85.6396C63.2092 85.6552 64.128 85.4605 64.9693 85.0702C66.5014 84.4141 67.9014 83.4849 69.1009 82.3278C69.5028 81.9725 69.9918 81.7304 70.518 81.6262C71.5567 81.3961 72.5616 81.0333 73.5078 80.5466C74.7426 79.8381 75.8183 78.8829 76.6678 77.7403C77.5172 76.5978 78.1222 75.2926 78.4451 73.906C78.5306 73.3601 78.7744 72.8512 79.1463 72.4426C79.5182 72.0339 80.0018 71.7433 80.5373 71.6069C83.6173 70.6704 84.7606 68.0586 85.4622 65.6289C85.5886 65.0873 85.6107 64.5267 85.5275 63.9769ZM76.2098 40.4553C76.4951 40.7078 76.7168 41.0241 76.8568 41.3785C76.9968 41.7329 77.0512 42.1153 77.0155 42.4947C77.0165 43.5599 77.0903 44.6237 77.2364 45.6789C77.3018 46.2389 77.3546 46.7973 77.406 47.3558C77.4342 48.0386 77.2773 48.7164 76.9518 49.3173C76.314 50.4607 75.586 51.5667 74.872 52.6446C75.262 51.5543 75.3737 50.3839 75.1971 49.2395C75.1293 48.7923 75.0337 48.3496 74.9109 47.9142C74.8157 47.5663 74.7332 47.215 74.6635 46.8611L74.6246 46.6278C74.5012 46.1529 74.479 45.6574 74.5593 45.1733C74.8872 44.3283 74.988 43.4122 74.8515 42.5161C74.715 41.6201 74.3461 40.7755 73.7815 40.0664C74.191 39.9581 74.6186 39.9368 75.0368 40.0038C75.455 40.0707 75.8546 40.2246 76.2098 40.4553ZM49.882 50.3175C50.1098 50.9876 50.3874 51.6396 50.7126 52.2682C51.1442 52.9875 51.6735 53.6435 52.2853 54.2173C52.5116 54.4382 52.8138 54.564 53.13 54.5689H53.1689C53.3559 54.5601 53.5391 54.5127 53.7069 54.4297C53.8748 54.3467 54.0236 54.2299 54.1442 54.0867C54.273 53.9678 54.3753 53.8232 54.4444 53.6621C54.5136 53.5011 54.548 53.3273 54.5455 53.1521C54.543 52.9769 54.5037 52.8041 54.43 52.6451C54.3562 52.4861 54.2499 52.3445 54.1178 52.2293C53.0211 51.0927 52.3432 49.6173 52.1951 48.0449C52.0688 47.2575 51.9991 46.4622 51.9866 45.6649C51.9393 45.0894 52.0778 44.5139 52.3819 44.023C52.686 43.5322 53.1396 43.1518 53.676 42.938C54.5585 42.4538 55.5468 42.1945 56.5534 42.1831C57.5599 42.1717 58.5538 42.4085 59.4471 42.8727C59.8477 43.0788 60.1906 43.3816 60.4446 43.7538C60.6986 44.1259 60.8556 44.5556 60.9015 45.0038C61.0217 45.6438 61.204 46.2705 61.446 46.8751C61.5393 47.1349 61.6295 47.3947 61.7073 47.6544C61.8115 47.9655 61.9157 48.2782 62.0324 48.5909C62.2706 49.2322 62.4701 49.8872 62.6298 50.5524C62.7793 51.3329 63.0901 52.0737 63.5422 52.7272C63.9944 53.3808 64.5779 53.9328 65.2555 54.348C65.5534 54.528 65.9086 54.5879 66.249 54.5154C66.5894 54.4428 66.8894 54.2434 67.088 53.9575C67.1957 53.8043 67.2718 53.6312 67.3119 53.4483C67.352 53.2653 67.3552 53.0762 67.3213 52.892C67.2927 52.7417 67.2342 52.5987 67.1492 52.4715C67.0643 52.3443 66.9545 52.2355 66.8266 52.1515C66.3387 51.8012 65.9351 51.3464 65.6453 50.8203C65.3555 50.2942 65.1867 49.71 65.1513 49.1104C65.0248 48.5717 64.8504 48.0454 64.6302 47.5378C64.515 47.2738 64.4112 47.0049 64.3191 46.732C64.2553 46.55 64.19 46.354 64.1122 46.1595C63.8893 45.5718 63.7109 44.9681 63.5786 44.3535C63.3985 43.2626 62.8913 42.252 62.1242 41.4555C62.0468 41.3319 62.0191 41.1835 62.0464 41.0402C62.1834 40.5043 62.5237 40.0428 62.9953 39.7538C63.1809 39.6451 63.3825 39.5664 63.5926 39.5204C63.7039 39.4955 63.8167 39.4779 63.9302 39.4675C64.6858 39.3856 65.4479 39.3814 66.2044 39.4551C66.6545 39.5066 67.1012 39.5845 67.5422 39.6884C67.8023 39.7524 68.0589 39.8303 68.3106 39.9218C69.3779 40.2771 70.3822 40.799 71.2864 41.468C71.6668 41.7262 71.9476 42.1067 72.0822 42.5463C72.2169 42.9859 72.1974 43.4583 72.0269 43.8853C71.6371 45.184 71.6506 46.5705 72.0657 47.8613C72.315 48.8211 72.4502 49.8068 72.4686 50.7982C72.4951 51.3111 72.3223 51.8144 71.9864 52.2029C71.8264 50.3848 71.1356 48.6538 70 47.2251C69.8709 47.0317 69.7914 46.8094 69.7686 46.578C69.7458 46.3466 69.7804 46.1131 69.8693 45.8982C70.1301 45.0955 70.1871 44.2406 70.035 43.4104C69.8829 42.5802 69.5266 41.801 68.9982 41.1429C68.8823 40.9555 68.7289 40.7942 68.5477 40.6689C68.3665 40.5436 68.1613 40.4571 67.9451 40.4149C67.7675 40.3842 67.5855 40.3915 67.4109 40.4363C67.2364 40.481 67.0733 40.5623 66.9324 40.6747C66.7761 40.7893 66.646 40.9359 66.5507 41.1047C66.4555 41.2735 66.3972 41.4606 66.3798 41.6537C66.3625 41.8467 66.3864 42.0412 66.45 42.2243C66.5137 42.4074 66.6155 42.5749 66.7489 42.7155C67.0401 43.0843 67.2323 43.5213 67.3075 43.9852C67.3826 44.449 67.3381 44.9244 67.1782 45.3662C67.0137 45.985 66.989 46.6327 67.1057 47.2623C67.2225 47.8918 67.4779 48.4875 67.8533 49.0062C68.3909 49.8785 68.8228 50.8116 69.1397 51.786C69.2682 52.233 69.2857 52.7047 69.1908 53.16C69.096 53.6154 68.8916 54.0407 68.5953 54.3993C67.4202 56.02 65.6976 57.16 63.7466 57.6084C63.4038 57.7014 63.0426 57.7035 62.6987 57.6146C62.3548 57.5256 62.0399 57.3488 61.7851 57.1013C61.3806 56.7124 61.2126 56.4387 61.3806 55.9191C61.5132 55.417 61.5319 54.8915 61.4353 54.3812C61.3387 53.8709 61.1292 53.3887 60.8222 52.9698C60.3618 52.1747 59.8082 51.4374 59.1733 50.7733C58.882 50.4951 58.6545 50.1571 58.5065 49.7824C58.3585 49.4078 58.2936 49.0055 58.3162 48.6033C58.3073 47.5119 57.9522 46.4514 57.302 45.5747C57.0618 45.1731 56.928 44.717 56.9131 44.2493C56.8198 42.9504 56.0544 42.7031 55.6126 42.6782C55.419 42.6641 55.2247 42.6909 55.0421 42.757C54.8596 42.823 54.6931 42.9268 54.5533 43.0615C54.4136 43.1963 54.3039 43.3589 54.2312 43.5389C54.1586 43.7189 54.1247 43.9122 54.1318 44.1062C54.0543 45.2049 54.3672 46.2956 55.0153 47.1862C55.3015 47.6143 55.4798 48.1053 55.5349 48.6173C55.5328 49.3969 55.6896 50.1687 55.9955 50.8856C56.3015 51.6026 56.7502 52.2498 57.3144 52.7878C57.7474 53.2397 58.0994 53.7627 58.3551 54.334C58.4578 54.5424 58.562 54.7384 58.6786 54.9453C58.7704 55.0744 58.8093 55.2704 58.5231 55.5675C57.9646 56.1664 57.4186 56.7653 56.8742 57.3487C56.4698 57.778 56.0809 58.2198 55.678 58.6491C55.5349 58.7922 55.4835 58.8311 55.4446 58.8311C53.619 59.3918 51.6881 59.5207 49.8042 59.2075C48.8211 59.047 47.9294 58.5361 47.2938 57.7692C46.6581 57.0024 46.3215 56.0313 46.3462 55.0355C46.312 54.3684 46.3297 53.6995 46.3991 53.0351L46.424 52.7862C46.4438 52.7083 46.4899 52.6396 46.5546 52.5918C47.9009 52.1831 49.0543 51.302 49.8026 50.1107C49.8291 50.1884 49.8555 50.2538 49.8804 50.3191L49.882 50.3175ZM28.7886 39.7009C29.3829 39.411 30.0006 39.1716 30.6351 38.9853C30.7078 38.9701 30.7817 38.9612 30.856 38.9589C31.0439 38.9495 31.2301 38.9996 31.388 39.102C32.1669 39.7578 33.0895 40.2206 34.0809 40.4531C35.0723 40.6855 36.1045 40.681 37.0938 40.4398C38.6929 40.1198 40.3515 40.2923 41.8506 40.9344C42.4529 41.176 43.0742 41.3675 43.708 41.5069C44.2527 41.6192 44.7875 41.7752 45.3071 41.9735C46.401 42.42 47.4462 42.9777 48.426 43.638C48.8303 43.9535 49.1264 44.3871 49.273 44.8785C49.4197 45.37 49.4096 45.895 49.2442 46.3804C49.2136 46.4228 49.1787 46.4619 49.14 46.4971L48.9844 46.6527C48.8569 46.806 48.7225 46.9534 48.5815 47.0944C48.2298 47.433 47.9318 47.8232 47.698 48.2518C47.4309 48.7952 47.0268 49.2595 46.5253 49.5989C46.0239 49.9383 45.4426 50.1409 44.8389 50.1869L44.1762 50.2647C43.1609 50.3214 42.1732 50.6155 41.2922 51.1233C40.2178 51.8193 38.9411 52.1348 37.6662 52.0193L37.6522 52.0069C36.3593 51.9755 35.0719 52.1866 33.8566 52.6291C32.9322 52.9689 31.9664 53.1834 30.9851 53.2669C29.9195 53.3322 29.3471 52.864 29.1137 51.7331C28.8323 50.4738 28.8016 49.1714 29.0235 47.9002C29.2426 46.7209 29.0688 45.5024 28.5289 44.4313C28.0968 43.593 27.7777 42.7012 27.58 41.7791C27.4699 41.3432 27.5349 40.8816 27.7611 40.4931C27.9873 40.1046 28.3552 39.8202 28.7886 39.7009ZM44.1373 57.6613C42.5213 57.0583 41.1041 56.019 40.0431 54.6591L43.5789 53.1502C43.4461 54.6764 43.6363 56.2135 44.1373 57.6613ZM30.5044 71.3455C30.0565 70.5789 29.5198 69.8678 28.9053 69.2269C28.7758 69.1061 28.6785 68.9549 28.622 68.7871C28.5655 68.6193 28.5517 68.44 28.5818 68.2655C28.6567 67.8759 28.7649 67.4934 28.9053 67.1222C29.2035 66.4034 29.2764 65.6109 29.1141 64.8498C28.9519 64.0886 28.5623 63.3947 27.9969 62.86C27.4917 62.4294 27.1249 61.8594 26.9423 61.2213C26.7596 60.5833 26.7694 59.9055 26.9702 59.2729C27.23 58.2727 27.5924 57.2849 27.944 56.336C28.0482 56.0249 28.1649 55.7122 28.2706 55.4135L31.1017 56.1011V56.1151C30.5275 56.7927 30.1032 57.5843 29.8568 58.4377C29.6104 59.2911 29.5475 60.187 29.6722 61.0664C29.8936 62.1236 30.3869 63.1048 31.1033 63.9131C31.3017 64.1382 31.4382 64.4109 31.4996 64.7045C31.5609 64.9982 31.545 65.3028 31.4533 65.5884C31.1006 66.827 31.0379 68.1302 31.2699 69.397C31.5018 70.6637 32.0224 71.8601 32.7911 72.8933C33.1426 73.4518 33.5315 73.9713 33.922 74.4909L34.0386 74.6464C33.8691 74.5951 33.7275 74.5298 33.572 74.4644C32.2325 73.7929 31.1536 72.696 30.5044 71.3455ZM44.8389 83.2238C43.6754 83.1723 42.5592 82.7486 41.6546 82.0151C39.9623 80.5177 37.8725 79.5424 35.6378 79.2073C35.336 79.1675 35.0321 79.1457 34.7278 79.142C33.9588 79.1556 33.1965 79.2873 32.4675 79.5324L32.3757 79.338C32.83 79.0642 33.2718 78.7655 33.7011 78.4793C34.8116 77.584 36.1307 76.9846 37.5355 76.7371C38.2024 76.6461 38.8813 76.7126 39.5177 76.9315C40.1542 77.1503 40.7305 77.5153 41.2004 77.9971C41.9591 78.8282 42.9396 79.4251 44.0263 79.7175C45.113 80.01 46.2606 79.9857 47.334 79.6475C48.0984 79.4106 48.7999 79.0054 49.387 78.4616C49.9741 77.9178 50.4319 77.2493 50.7266 76.5053L50.8433 76.2191C50.9788 75.8521 51.158 75.5027 51.3769 75.1784C51.6347 74.843 51.9629 74.568 52.3382 74.3727C52.639 74.2306 52.8811 73.9886 53.0233 73.6878C53.1654 73.3871 53.1987 73.0463 53.1175 72.7238C53.024 72.3923 52.8082 72.1086 52.5138 71.9299C52.2193 71.7513 51.8681 71.6908 51.5309 71.7609C51.2848 71.8179 51.0455 71.9008 50.8169 72.0082C50.7266 72.0471 50.6489 72.086 50.5571 72.1249C50.2268 71.2212 50.2362 70.2283 50.5835 69.3311C50.7256 68.9915 50.9396 68.6867 51.2109 68.4377C51.4821 68.1888 51.8041 68.0016 52.1546 67.8891C52.4885 67.8061 52.7776 67.5977 52.9619 67.3072C53.1461 67.0166 53.2113 66.6663 53.144 66.3289C53.1083 66.0225 52.9617 65.7397 52.7319 65.534C52.502 65.3283 52.2049 65.2137 51.8964 65.212C51.5102 65.2253 51.1323 65.3275 50.792 65.5106C50.5711 65.6273 50.4933 65.6149 50.2724 65.4453C49.0824 64.4128 47.6668 63.6739 46.1393 63.2878C44.6878 62.9163 43.1501 63.097 41.8242 63.7949C41.4462 61.9208 40.3857 60.2539 38.8484 59.1173C38.7146 58.9759 38.5522 58.8646 38.372 58.7908C38.1918 58.717 37.998 58.6824 37.8034 58.6893C37.6088 58.6962 37.4179 58.7445 37.2434 58.8308C37.0689 58.9172 36.9148 59.0397 36.7913 59.1903C36.6678 59.3408 36.5777 59.5159 36.5271 59.7039C36.4765 59.8919 36.4665 60.0886 36.4978 60.2807C36.5291 60.4729 36.6009 60.6562 36.7084 60.8185C36.816 60.9808 36.9569 61.1183 37.1218 61.222C37.9434 61.7765 38.5692 62.5762 38.9099 63.5071C39.2507 64.438 39.289 65.4527 39.0195 66.4066C38.8803 66.8546 38.6925 67.286 38.4595 67.6931C38.3164 67.9793 38.1609 68.2655 38.0426 68.5642C37.9464 68.7763 37.9022 69.0083 37.9135 69.241C37.9249 69.4737 37.9915 69.7002 38.108 69.902C38.2013 70.0608 38.3317 70.1947 38.488 70.2922C38.6443 70.3897 38.8218 70.448 39.0055 70.462C39.127 70.4706 39.249 70.4664 39.3695 70.4495C39.6342 70.4092 39.8869 70.3115 40.11 70.1633C40.1964 70.1042 40.2748 70.0341 40.3433 69.9549C40.7359 69.4762 41.0475 68.9366 41.2658 68.3573C41.454 67.8476 41.7433 67.381 42.1162 66.9857C42.489 66.5904 42.9379 66.2744 43.4358 66.0567C43.9337 65.8853 44.4615 65.8176 44.9866 65.8578C45.5118 65.8979 46.0231 66.045 46.4893 66.29C47.0128 66.5508 47.5208 66.8416 48.0106 67.1611C48.1538 67.2513 48.3093 67.3431 48.4524 67.4333C47.9095 68.4692 47.6108 69.6156 47.5792 70.7847C47.5477 71.9538 47.7841 73.1146 48.2704 74.1782C48.3493 74.3963 48.3798 74.6289 48.3596 74.86C48.3395 75.091 48.2692 75.3149 48.1537 75.516C47.9571 76.0071 47.6179 76.4281 47.1799 76.7248C46.7418 77.0214 46.225 77.1801 45.696 77.1804C45.6322 77.2193 45.4502 77.1151 45.4113 77.0886C44.4842 75.4147 43.9721 73.5429 43.918 71.6302C43.879 71.0209 44.0291 70.4145 44.3475 69.8936C44.666 69.3727 45.1375 68.9628 45.6975 68.7198C46.0892 68.5444 46.3968 68.2228 46.5546 67.8238C46.608 67.6545 46.6262 67.4762 46.6083 67.2997C46.5904 67.1232 46.5367 66.9522 46.4504 66.7971C46.3613 66.6337 46.2406 66.4897 46.0952 66.3735C45.9498 66.2574 45.7827 66.1714 45.6037 66.1205C45.4247 66.0697 45.2373 66.055 45.0526 66.0775C44.8678 66.0999 44.6894 66.1589 44.5278 66.2511C43.5284 66.6642 42.6766 67.3685 42.0832 68.2724C41.4897 69.1763 41.1821 70.2379 41.2004 71.3191C41.2101 72.2853 41.2928 73.2494 41.4478 74.2031L41.5255 74.8144C40.363 74.1653 39.0308 73.8843 37.7051 74.0087C37.5324 74.0321 37.3566 74.0083 37.1964 73.9398C37.0362 73.8713 36.8975 73.7607 36.7951 73.6198C35.6942 72.4807 34.8246 71.1389 34.2346 69.6686C33.7999 68.6097 33.7493 67.4321 34.0915 66.3398C34.3136 65.6643 34.3621 64.9438 34.2327 64.2447C34.1033 63.5455 33.8002 62.8901 33.3511 62.3389C31.9604 60.4924 31.9604 59.4144 33.3775 57.6987C34.1572 56.8198 35.0045 56.0032 35.9115 55.2564L36.3144 54.9173C36.4174 54.7971 36.5606 54.7186 36.7173 54.6964C36.7826 54.7104 36.9118 54.7742 37.1062 55.1382C38.4873 57.5635 40.7126 59.3957 43.358 60.2855C43.5635 60.3724 43.7874 60.4072 44.0096 60.3868C44.2318 60.3665 44.4456 60.2916 44.632 60.1689C44.8705 59.9884 45.0471 59.7384 45.1375 59.4533C45.7984 60.2547 46.6251 60.9033 47.5607 61.3544C48.4963 61.8056 49.5185 62.0486 50.5571 62.0667C51.1966 62.0956 51.8227 62.2601 52.3939 62.5492C52.9651 62.8382 53.4684 63.2454 53.8704 63.7435C54.2574 64.2305 54.5382 64.7931 54.695 65.395C54.8517 65.9969 54.8808 66.625 54.7804 67.2389C54.7823 67.2829 54.7776 67.3269 54.7664 67.3695V67.4598C54.2352 68.7735 54.0869 70.2108 54.3386 71.6053C54.39 72.0595 54.4289 72.5278 54.4429 72.9835C54.4818 74.6464 54.4289 76.3482 54.39 77.9986L54.3775 78.3253C54.3113 78.8854 54.0904 79.4159 53.7398 79.8575C52.9991 80.9313 52.0036 81.8045 50.8424 82.3988C49.6813 82.9931 48.3908 83.2899 47.0866 83.2627C46.3377 83.3155 45.5855 83.3025 44.8389 83.2238ZM52.7146 86.1218C50.9692 86.697 49.0792 86.6558 47.3604 86.0051C47.516 85.9787 47.6591 85.9522 47.8146 85.9273C48.958 85.7189 50.1278 85.5104 51.2975 85.1993C52.1603 84.9524 52.9555 84.5125 53.6231 83.9129C54.5826 83.0327 55.4695 82.0765 56.2753 81.0538C56.5057 80.7417 56.6852 80.3952 56.8073 80.0271C56.8271 79.9845 56.8448 79.9409 56.8602 79.8964L58.9913 81.2995C58.3223 82.4834 57.4217 83.5205 56.3434 84.349C55.265 85.1774 54.0309 85.7803 52.7146 86.1218ZM61.3682 82.7431L61.3822 82.7291C61.5315 82.4726 61.6962 82.2253 61.8753 81.9887C61.9715 81.9322 62.0768 81.8927 62.1864 81.872C62.8491 81.6775 63.5242 81.4831 64.1884 81.2995C64.3703 81.2505 64.56 81.2373 64.7469 81.2606C65.072 81.326 65.3971 81.4038 65.7346 81.494C65.1489 82.0187 64.4518 82.4036 63.6957 82.6197C62.9396 82.8358 62.1443 82.8775 61.3698 82.7415L61.3682 82.7431ZM72.8824 77.6875C71.4915 78.7471 69.7502 79.2392 68.0104 79.0642C70.5389 77.3877 72.8481 75.402 74.8844 73.1531H75.8209C75.3304 74.9301 74.3035 76.5132 72.8824 77.6875ZM79.9913 68.8753C78.9258 69.3311 77.8353 69.7464 76.7682 70.1618L76.3529 70.3173C76.2306 70.3549 76.1042 70.3769 75.9764 70.3826L75.7431 70.4215C75.6411 70.4483 75.534 70.4483 75.432 70.4215C75.3262 70.3827 75.2873 70.2924 75.2484 70.0964C75.2194 69.9156 75.1541 69.7426 75.0565 69.5876C74.9589 69.4327 74.831 69.2991 74.6805 69.1947C74.53 69.0904 74.36 69.0176 74.1807 68.9806C74.0013 68.9436 73.8164 68.9433 73.6369 68.9795C73.4571 69.011 73.2853 69.0777 73.1315 69.176C72.9777 69.2742 72.8449 69.4021 72.7409 69.552C72.6346 69.7177 72.5626 69.903 72.5292 70.0969C72.4958 70.2909 72.5017 70.4896 72.5464 70.6813C72.5971 70.9114 72.5928 71.1502 72.5339 71.3783C72.475 71.6064 72.3631 71.8175 72.2073 71.9942C71.9824 72.3136 71.726 72.6096 71.442 72.8778L70.882 73.3444C69.9471 74.1642 68.9718 75.0089 67.9575 75.7633C67.4764 76.1072 66.9681 76.4116 66.4377 76.6733C66.1266 76.8413 65.8264 76.9984 65.5278 77.1789L65.1249 77.4122C64.5735 77.7101 64.048 78.0535 63.5537 78.4389C63.0645 78.8498 62.4583 79.0962 61.8211 79.1431C61.1839 79.19 60.5481 79.0351 60.004 78.7002L59.1469 78.1138C58.6273 77.7638 58.0937 77.3998 57.5602 77.0622C57.4627 77.0135 57.3822 76.9365 57.3292 76.8413C57.2762 76.7461 57.2532 76.6372 57.2631 76.5286C57.2242 75.3729 57.1589 74.2155 57.1075 73.0598C57.0546 72.058 57.0033 71.0453 56.9644 70.0451C56.9691 69.7764 57.0262 69.5111 57.1324 69.2642C57.6114 68.0889 57.7688 66.8073 57.5883 65.5511C57.4079 64.2949 56.8962 63.1094 56.1058 62.1164C55.9766 61.9609 55.8335 61.8053 55.664 61.6358C56.754 61.3885 57.7102 60.7384 58.3411 59.8158L58.59 59.5435C58.8233 59.2838 59.0566 59.024 59.3164 58.7502L59.4455 58.6195C59.9227 59.1935 60.5237 59.652 61.2035 59.9605C61.8832 60.2689 62.624 60.4194 63.3702 60.4006C63.6071 61.6333 63.525 62.906 63.1316 64.0979C62.7381 65.2899 62.0465 66.3615 61.1224 67.2109C61.018 67.2489 60.9043 67.2532 60.7973 67.2233C60.636 67.135 60.4589 67.0794 60.2761 67.0597C60.0933 67.04 59.9084 67.0567 59.732 67.1088C59.5556 67.1608 59.3913 67.2472 59.2484 67.363C59.1056 67.4787 58.987 67.6216 58.8995 67.7833C58.812 67.9349 58.7565 68.1029 58.7364 68.2768C58.7163 68.4507 58.7321 68.6269 58.7829 68.7944C58.8561 68.9966 58.9699 69.1816 59.1173 69.3381C59.2647 69.4946 59.4426 69.6192 59.64 69.7044C60.2 69.9907 60.7849 70.2504 61.3698 70.5102L62.0184 70.8104C62.1506 70.8545 62.2722 70.9257 62.3753 71.0195C62.4784 71.1132 62.5608 71.2275 62.6173 71.3549C62.6342 71.4319 62.6336 71.5117 62.6155 71.5884C62.5975 71.6651 62.5625 71.7368 62.5131 71.7982C62.3621 71.9581 62.1592 72.059 61.9406 72.0829C60.6248 72.2271 59.388 72.7829 58.4064 73.6711C58.2534 73.781 58.125 73.9215 58.0294 74.0838C57.9338 74.2461 57.8731 74.4265 57.8512 74.6136C57.8292 74.8007 57.8465 74.9903 57.9019 75.1703C57.9573 75.3503 58.0497 75.5168 58.1731 75.6591C58.2991 75.806 58.4546 75.9248 58.6294 76.0079C58.8042 76.0909 58.9945 76.1364 59.188 76.1414C59.3815 76.1464 59.5739 76.1108 59.7527 76.0368C59.9316 75.9628 60.093 75.8522 60.2264 75.712C60.8623 75.1554 61.6674 74.8296 62.5114 74.7872C63.3555 74.7449 64.1891 74.9885 64.8775 75.4786C64.9818 75.5424 65.086 75.6078 65.1778 75.6731C65.3069 75.7633 65.4251 75.8551 65.5542 75.9329C65.854 76.1253 66.2168 76.1937 66.5661 76.1234C66.9153 76.0532 67.2235 75.8498 67.4255 75.5564C67.6342 75.2577 67.718 74.8893 67.6589 74.5298C67.6231 74.355 67.5529 74.1892 67.4525 74.0418C67.3521 73.8944 67.2235 73.7684 67.074 73.6711C66.6129 73.3561 66.1357 73.0654 65.6444 72.8C65.5013 72.7098 65.3582 72.632 65.2151 72.5402L65.3862 71.7624C65.5071 71.7597 65.6281 71.7633 65.7486 71.7733C66.2153 71.7733 66.6975 71.7873 67.1782 71.7484C68.4848 71.6488 69.7302 71.1542 70.749 70.3301C71.7678 69.506 72.5119 68.3916 72.8824 67.1347C73.2255 66.4751 73.7394 65.9198 74.3704 65.5266C75.0013 65.1334 75.7263 64.9168 76.4695 64.8993C76.8237 64.9574 77.1586 65.0999 77.4459 65.3149C77.7332 65.53 77.9644 65.8111 78.12 66.1344C78.3673 66.5233 79.1218 67.6806 80.2511 66.9791C80.5536 66.8021 80.7735 66.5123 80.8624 66.1733C80.9231 65.62 80.7645 65.0649 80.4206 64.6271C79.806 63.515 78.779 62.6888 77.5611 62.3266C76.3431 61.9643 75.0316 62.095 73.9091 62.6904C73.7924 62.7293 73.6882 62.7807 73.5715 62.8335C73.5063 62.4976 73.3157 62.199 73.0383 61.9985C72.761 61.798 72.4177 61.7106 72.0782 61.754C71.6613 61.7929 70.9738 62.0278 70.8431 63.1587L70.8291 63.3795C70.7667 64.0786 70.6586 64.7728 70.5055 65.4578C70.4348 66.0851 70.2212 66.6879 69.8811 67.2198C69.5411 67.7517 69.0836 68.1986 68.5439 68.526C68.0041 68.8535 67.3965 69.0529 66.7676 69.1089C66.1388 69.1648 65.5055 69.0759 64.9164 68.8489C64.5615 68.7712 64.2105 68.6762 63.8649 68.5642C63.8488 68.5552 63.8304 68.5508 63.812 68.5518C63.9286 68.3558 64.0593 68.1738 64.176 67.9918C64.6189 67.3274 65.0225 66.6376 65.3846 65.926C66.1847 64.1934 66.4605 62.2647 66.178 60.3773C66.1002 59.8438 66.2044 59.6618 66.7224 59.3895C67.4644 58.9851 68.166 58.5184 68.894 58.0253C69.1273 57.8698 69.3482 57.7142 69.5955 57.5571C70.2917 58.3389 71.1358 58.975 72.0792 59.4286C73.0227 59.8822 74.0466 60.1444 75.092 60.1999C76.1373 60.2555 77.1833 60.1033 78.1695 59.7522C79.1557 59.4011 80.0625 58.8581 80.8375 58.1544C81.3222 58.5137 81.7207 58.9767 82.0038 59.5095C82.2869 60.0424 82.4475 60.6316 82.474 61.2344C82.5269 61.8847 82.6046 62.5349 82.67 63.1835C82.7089 63.4822 82.7478 63.7949 82.7726 64.0935L82.8131 64.302C82.8321 64.4004 82.8404 64.5005 82.838 64.6007C82.7603 65.4948 82.4588 66.355 81.9613 67.1021C81.4639 67.8491 80.7864 68.4589 79.9913 68.8753Z" fill="black"/>
<path d="M29.3222 43.0018C30.4435 43.6072 31.3475 44.5482 31.9076 45.6929C31.9764 45.8003 32.0109 45.9262 32.0064 46.0538C32.002 46.1813 31.9588 46.3045 31.8827 46.4069C31.3948 47.2873 30.965 48.1987 30.5962 49.1353C30.5051 49.3349 30.4558 49.551 30.4513 49.7704C30.4467 49.9897 30.487 50.2077 30.5698 50.4109C30.651 50.5759 30.7657 50.7223 30.9066 50.8407C31.0475 50.959 31.2114 51.0468 31.388 51.0984C31.5348 51.1485 31.6887 51.1747 31.8438 51.1762C32.3882 51.1762 32.8316 50.7998 33.1816 50.0578C33.6392 49.02 34.1868 48.0243 34.818 47.082C35.364 46.3291 35.9489 46.2109 36.8978 46.6791C37.6787 47.0988 38.5647 47.283 39.4482 47.2092C40.3318 47.1355 41.1749 46.8071 41.8756 46.2638C42.448 45.8609 42.7467 45.8344 43.162 46.172C43.2853 46.2701 43.427 46.3427 43.5787 46.3854C43.7304 46.4282 43.8891 46.4402 44.0456 46.4209C44.4292 46.3649 44.7749 46.159 45.0069 45.8484C45.2196 45.5722 45.3144 45.223 45.2707 44.8771C45.227 44.5312 45.0483 44.2166 44.7736 44.002C44.4431 43.7272 44.0701 43.5081 43.6691 43.3533C43.0929 43.163 42.477 43.1263 41.8823 43.2469C41.2876 43.3675 40.7346 43.6411 40.278 44.0409C39.9784 44.2897 39.6097 44.4405 39.2216 44.4731C38.8336 44.5056 38.4449 44.4183 38.108 44.2229C37.513 43.8909 36.8464 43.7081 36.1653 43.6902C35.4842 43.6724 34.8089 43.8199 34.1973 44.1202C34.1196 44.002 34.0542 43.8869 33.9764 43.7686C33.1614 42.3796 31.9533 41.263 30.5044 40.5595C30.3431 40.4724 30.1657 40.4188 29.9831 40.402C29.8004 40.3853 29.6163 40.4057 29.4417 40.4621C29.2672 40.5184 29.1059 40.6096 28.9675 40.73C28.8292 40.8504 28.7166 40.9976 28.6367 41.1627C28.5568 41.3278 28.5112 41.5073 28.5025 41.6905C28.4939 41.8737 28.5225 42.0568 28.5866 42.2287C28.6506 42.4005 28.7488 42.5576 28.8753 42.6905C29.0017 42.8234 29.1537 42.9293 29.3222 43.0018Z" fill="black"/>
</svg>
