<svg width="112" height="112" viewBox="0 0 112 112" fill="none" xmlns="http://www.w3.org/2000/svg">
<path d="M81.6387 46.0755C79.6927 48.888 81.522 51.3426 83.356 54.1426C85.2584 57.0484 84.2318 60.8362 81.3929 63.3453C81.1477 63.4996 80.9369 63.7029 80.7739 63.9425C80.6108 64.182 80.499 64.4526 80.4454 64.7374C80.3918 65.0221 80.3976 65.3149 80.4624 65.5973C80.5272 65.8797 80.6496 66.1457 80.822 66.3786C82.754 70.4604 81.3773 74.41 77.5242 76.86C76.7407 77.3807 76.1346 78.1279 75.7867 79.002C75.2634 80.7146 74.1558 82.1893 72.6569 83.1691C71.158 84.1489 69.3629 84.5718 67.5842 84.364C67.1666 84.3827 66.7578 84.4897 66.3845 84.6779C66.0113 84.8662 65.6822 85.1313 65.4189 85.456C63.2069 88.5158 60.3198 89.1193 57.1589 86.884C56.8336 86.5716 56.3995 86.3981 55.9485 86.4005C55.4975 86.4028 55.0651 86.5807 54.7431 86.8964C51.6942 89.1006 48.692 88.4629 46.4629 85.4311C46.1941 85.1074 45.8602 84.8439 45.4828 84.6579C45.1054 84.4719 44.6931 84.3675 44.2727 84.3515C42.5309 84.5805 40.7647 84.1773 39.2948 83.2151C37.8249 82.253 36.7487 80.7957 36.2616 79.1078C35.9199 78.2176 35.3113 77.4547 34.5193 76.9238C30.3956 74.354 29.0593 70.2831 31.2807 65.9369C31.9091 64.708 31.5513 64.2273 30.7036 63.4853C29.7831 62.7785 29.0331 61.8739 28.5092 60.8384C27.9852 59.8028 27.7006 58.6628 27.6764 57.5025C27.6522 56.3422 27.8891 55.1912 28.3694 54.1348C28.8497 53.0783 29.5613 52.1432 30.4516 51.3986C30.8737 51.1005 31.1678 50.6542 31.2754 50.1488C31.3829 49.6433 31.296 49.1159 31.0318 48.6718C29.2678 44.3224 30.5573 40.8146 34.5193 38.2651C35.346 37.6741 35.9693 36.8416 36.3036 35.882C36.7997 34.2714 37.8495 32.8882 39.2671 31.9769C40.6848 31.0657 42.379 30.6852 44.0502 30.9026C44.5573 31.0306 45.093 30.978 45.5654 30.7537C46.0378 30.5294 46.4173 30.1475 46.6387 29.6738C47.0103 29.0003 47.5252 28.4165 48.147 27.9637C48.7687 27.5109 49.4823 27.2 50.2374 27.053C50.9924 26.906 51.7705 26.9264 52.5168 27.1129C53.263 27.2994 53.9593 27.6473 54.5564 28.1322C54.7332 28.3177 54.9455 28.4657 55.1807 28.5674C55.4158 28.6691 55.6691 28.7224 55.9253 28.7241C56.1815 28.7259 56.4354 28.676 56.6719 28.5775C56.9085 28.479 57.1228 28.3339 57.302 28.1509C60.2218 26.054 63.2504 26.7664 65.4096 29.6909C65.6979 30.0342 66.0555 30.3129 66.4589 30.5086C66.8623 30.7042 67.3025 30.8126 67.7507 30.8264C69.5322 30.6458 71.32 31.1028 72.7962 32.1162C74.2725 33.1296 75.3415 34.6337 75.8131 36.3611C76.2418 37.2792 76.9373 38.0469 77.8089 38.5638C79.0719 39.3469 80.0964 40.4607 80.7715 41.7846C81.4466 43.1085 81.7465 44.5918 81.6387 46.074V46.0755Z" fill="#FFA7C0"/>
<path d="M56 28.7171V86.4033M81.6387 46.0755C79.6927 48.888 81.522 51.3426 83.356 54.1426C85.2584 57.0484 84.2318 60.8362 81.3929 63.3453C81.1477 63.4996 80.9369 63.7029 80.7739 63.9425C80.6108 64.182 80.499 64.4526 80.4454 64.7374C80.3918 65.0221 80.3976 65.3149 80.4624 65.5973C80.5272 65.8797 80.6496 66.1457 80.822 66.3786C82.754 70.4604 81.3773 74.41 77.5242 76.86C76.7407 77.3807 76.1346 78.1279 75.7867 79.002C75.2634 80.7146 74.1558 82.1893 72.6569 83.1691C71.158 84.1489 69.3629 84.5718 67.5842 84.364C67.1666 84.3827 66.7578 84.4897 66.3845 84.6779C66.0113 84.8662 65.6822 85.1313 65.4189 85.456C63.2069 88.5158 60.3198 89.1193 57.1589 86.884C56.8336 86.5716 56.3995 86.3981 55.9485 86.4005C55.4975 86.4028 55.0651 86.5807 54.7431 86.8964C51.6942 89.1006 48.692 88.4629 46.4629 85.4311C46.1941 85.1074 45.8602 84.8439 45.4828 84.6579C45.1054 84.4719 44.6931 84.3675 44.2727 84.3515C42.5309 84.5805 40.7647 84.1773 39.2948 83.2151C37.8249 82.253 36.7487 80.7957 36.2616 79.1078C35.9199 78.2176 35.3113 77.4547 34.5193 76.9238C30.3956 74.354 29.0593 70.2831 31.2807 65.9369C31.9091 64.708 31.5513 64.2273 30.7036 63.4853C29.7831 62.7785 29.0331 61.8739 28.5092 60.8384C27.9852 59.8028 27.7006 58.6628 27.6764 57.5025C27.6522 56.3422 27.8891 55.1912 28.3694 54.1348C28.8497 53.0783 29.5613 52.1432 30.4516 51.3986C30.8737 51.1005 31.1678 50.6542 31.2754 50.1488C31.3829 49.6433 31.296 49.1159 31.0318 48.6718C29.2678 44.3224 30.5573 40.8146 34.5193 38.2651C35.346 37.6741 35.9693 36.8416 36.3036 35.882C36.7997 34.2714 37.8495 32.8882 39.2671 31.9769C40.6848 31.0657 42.379 30.6852 44.0502 30.9026C44.5573 31.0306 45.093 30.978 45.5654 30.7537C46.0378 30.5294 46.4173 30.1475 46.6387 29.6738C47.0103 29.0003 47.5252 28.4165 48.147 27.9637C48.7687 27.5109 49.4823 27.2 50.2374 27.053C50.9924 26.906 51.7705 26.9264 52.5168 27.1129C53.263 27.2994 53.9593 27.6473 54.5564 28.1322C54.7332 28.3177 54.9455 28.4657 55.1807 28.5674C55.4158 28.6691 55.6691 28.7224 55.9253 28.7241C56.1815 28.7259 56.4354 28.676 56.6719 28.5775C56.9085 28.479 57.1228 28.3339 57.302 28.1509C60.2218 26.054 63.2504 26.7664 65.4096 29.6909C65.6979 30.0342 66.0555 30.3129 66.4589 30.5086C66.8623 30.7042 67.3025 30.8126 67.7507 30.8264C69.5322 30.6458 71.32 31.1028 72.7962 32.1162C74.2725 33.1296 75.3415 34.6337 75.8131 36.3611C76.2418 37.2792 76.9373 38.0469 77.8089 38.5638C79.0719 39.3469 80.0964 40.4607 80.7715 41.7846C81.4466 43.1085 81.7465 44.5918 81.6387 46.074V46.0755Z" stroke="black" stroke-width="2" stroke-miterlimit="10"/>
<path d="M47.7167 46.7616C47.7167 46.7616 53.8191 40.6265 56 48.8647C58.1809 40.6265 64.2833 46.7616 64.2833 46.7616M68.6342 42.1198C68.6342 42.1198 72.7705 34.5178 64.2522 34.7823M64.2833 66.7334C64.2833 66.7334 58.1809 72.8716 56 64.6334C53.8191 72.87 47.7167 66.7334 47.7167 66.7334M65.8187 56.7794C65.8187 56.7794 71.9787 50.7003 74.0833 58.9571" stroke="black" stroke-width="2" stroke-linecap="round" stroke-linejoin="round"/>
<path d="M77.8089 38.5623C77.8089 38.5623 75.852 36.4871 69.5675 36.9927M68.5424 72.4718C68.5424 72.4718 71.9864 80.4114 63.5258 79.3909" stroke="black" stroke-width="2" stroke-linecap="round" stroke-linejoin="round"/>
<path d="M77.7467 76.7154C77.7467 76.7154 75.2313 78.7251 69.0169 77.6611M43.6878 42.1198C43.6878 42.1198 39.55 34.5178 48.0698 34.7823M45.4222 56.7794C45.4222 56.7794 39.2622 50.7003 37.1591 58.9571" stroke="black" stroke-width="2" stroke-linecap="round" stroke-linejoin="round"/>
<path d="M34.4354 38.3195C34.4354 38.3195 36.47 36.4871 42.7545 36.9926M43.3845 72.4717C43.3845 72.4717 39.9405 80.4113 48.4011 79.3909" stroke="black" stroke-width="2" stroke-linecap="round" stroke-linejoin="round"/>
<path d="M34.1802 76.7153C34.1802 76.7153 36.6956 78.7251 42.91 77.6611" stroke="black" stroke-width="2" stroke-linecap="round" stroke-linejoin="round"/>
</svg>
