<svg width="160" height="76" viewBox="0 0 160 76" fill="none" xmlns="http://www.w3.org/2000/svg">
<path fill-rule="evenodd" clip-rule="evenodd" d="M81.0803 15.3833C81.7342 15.1124 82.4869 15.2621 82.9874 15.7626L103.987 36.7626C104.671 37.446 104.671 38.5541 103.987 39.2375L82.9874 60.2375C82.4869 60.738 81.7342 60.8877 81.0803 60.6168C80.4264 60.346 80 59.7079 80 59.0001V50.2501H62.5C61.5717 50.2501 60.6815 49.8813 60.0251 49.2249C59.3687 48.5685 59 47.6783 59 46.7501V29.2501C59 28.3218 59.3688 27.4316 60.0251 26.7752C60.6815 26.1188 61.5717 25.7501 62.5 25.7501H80V17.0001C80 16.2922 80.4264 15.6541 81.0803 15.3833ZM83.5 21.2249V27.5001C83.5 28.4665 82.7165 29.2501 81.75 29.2501H62.5L62.5 46.7501H81.75C82.7165 46.7501 83.5 47.5336 83.5 48.5001V54.7752L100.275 38.0001L83.5 21.2249Z" fill="#0097B2" fill-opacity="0.5"/>
<path d="M2 2H122C141.882 2 158 18.1177 158 38V38C158 57.8823 141.882 74 122 74H2V2Z" stroke="#0097B2" stroke-opacity="0.5" stroke-width="3"/>
</svg>
