<svg width="112" height="112" viewBox="0 0 112 112" fill="none" xmlns="http://www.w3.org/2000/svg">
<path d="M85.5556 94.8888V88.6666C85.5556 80.8888 77.7778 74.6666 70 74.6666C60.6667 82.4444 51.3333 82.4444 42 74.6666C34.2222 74.6666 26.4445 80.8888 26.4445 88.6666V94.8888H85.5556Z" fill="#92D3F5"/>
<path d="M65.6444 31.1111C67.5111 31.2667 70.6222 33.4444 73.4222 44.6444V45.2667C72.6748 48.387 71.579 51.4134 70.1556 54.2889C70.1556 54.2889 67.2 58.9556 65.9556 52.4222C59.2913 50.5551 52.2421 50.5551 45.5778 52.4222C44.3333 58.9556 41.3778 54.2889 41.3778 54.2889C39.9543 51.4134 38.8585 48.387 38.1111 45.2667V44.6444C42.4667 27.3778 47.7556 31.2667 47.7556 31.2667C54.6 34.2222 55.2222 34.6889 64.2444 31.2667C64.2444 31.2667 65.0222 30.9556 66.1111 30.4889L65.6444 31.1111Z" fill="#FCEA2B"/>
<path d="M47.6 54.7556H64.7111V66.5778H47.6V54.7556Z" fill="#FCEA2B"/>
<path d="M73.2667 45.1111V44.4889C70.4667 33.2889 67.3555 31.1111 65.4889 30.9555V30.4889C64.9444 30.7642 64.3704 30.9726 63.7778 31.1111C54.7556 34.5333 54.2889 34.0666 47.2889 31.1111C47.2889 31.1111 42 27.2222 37.6444 44.4889V45.1111C36.7103 41.6599 36.5045 38.0522 37.0401 34.5172C37.5757 30.9822 38.841 27.5973 40.7556 24.5778C45.7333 16.9555 60.8222 20.8444 60.8222 20.8444L65.6444 17.1111L67.3556 21.9333L72.9556 18.2C73.5066 19.603 73.6232 21.1392 73.2904 22.6093C72.9575 24.0794 72.1905 25.4156 71.0889 26.4444L71.2444 26.6C74.0186 32.3567 74.7325 38.8912 73.2667 45.1111ZM70.6222 62.6889C69.8011 64.278 68.6936 65.7018 67.3556 66.8889C64.1709 69.6339 60.0414 71.029 55.8444 70.7777H55.3778C51.1808 71.029 47.0514 69.6339 43.8667 66.8889C42.574 65.66 41.4727 64.2444 40.6 62.6889C38.3071 58.4531 37.2811 53.6472 37.6444 48.8444C37.8 47.2889 37.8 45.7333 37.8 45.1111C38.5474 48.2314 39.6432 51.2578 41.0667 54.1333C41.0667 54.1333 44.1778 58.8 45.2667 52.2666C51.9307 50.4 58.9804 50.4 65.6444 52.2666C66.8889 58.8 69.8444 54.1333 69.8444 54.1333C71.2679 51.2578 72.3637 48.2314 73.1111 45.1111C73.4051 46.3337 73.5622 47.586 73.5778 48.8444C73.9411 53.6472 72.9151 58.4531 70.6222 62.6889ZM62.2222 57.7111C62.2214 57.2988 62.0572 56.9036 61.7657 56.612C61.4742 56.3205 61.079 56.1563 60.6667 56.1555L55.8444 58.4889L51.1778 56.1555C50.9702 56.143 50.7624 56.1747 50.568 56.2485C50.3737 56.3223 50.1971 56.4364 50.0501 56.5834C49.9031 56.7304 49.789 56.907 49.7152 57.1014C49.6414 57.2957 49.6097 57.5035 49.6222 57.7111V60.6666C49.6222 61.7555 52.1111 63.7777 55.8444 63.7777C59.5778 63.7777 62.0667 61.7555 62.0667 60.6666V57.7111H62.2222Z" fill="#F1B31C"/>
<path d="M85.5556 93.3333V88.6666C85.5556 80.8888 77.7778 74.6666 70 74.6666C60.6667 82.4444 51.3333 82.4444 42 74.6666C34.2222 74.6666 26.4445 80.8888 26.4445 88.6666V93.3333" stroke="black" stroke-width="2" stroke-linecap="round" stroke-linejoin="round"/>
<path d="M62.2222 41.5333C63.0473 41.5333 63.8387 41.8611 64.4221 42.4445C65.0055 43.028 65.3333 43.8193 65.3333 44.6444C65.3333 45.4696 65.0055 46.2609 64.4221 46.8443C63.8387 47.4278 63.0473 47.7555 62.2222 47.7555C61.3971 47.7555 60.6058 47.4278 60.0223 46.8443C59.4389 46.2609 59.1111 45.4696 59.1111 44.6444C59.1111 43.8193 59.4389 43.028 60.0223 42.4445C60.6058 41.8611 61.3971 41.5333 62.2222 41.5333ZM62.0667 56.7778C62.2287 57.1494 62.2379 57.5699 62.0924 57.9483C61.9468 58.3268 61.6582 58.6327 61.2889 58.8C59.6085 59.6685 57.7353 60.0967 55.8444 60.0444C54.0118 60.0204 52.2066 59.5957 50.5555 58.8C50.1862 58.6327 49.8976 58.3268 49.7521 57.9483C49.6065 57.5699 49.6158 57.1494 49.7778 56.7778C49.8552 56.5911 49.9728 56.4238 50.1223 56.2879C50.2718 56.1519 50.4494 56.0506 50.6426 55.9912C50.8357 55.9318 51.0396 55.9157 51.2396 55.9441C51.4397 55.9725 51.631 56.0447 51.8 56.1555C54.2578 57.5555 57.2755 57.5555 59.7333 56.1555C60.1258 55.9308 60.591 55.8701 61.028 55.9867C61.4649 56.1032 61.8382 56.3875 62.0667 56.7778ZM49.7778 41.5333C50.6029 41.5333 51.3942 41.8611 51.9777 42.4445C52.5611 43.028 52.8889 43.8193 52.8889 44.6444C52.8889 45.4696 52.5611 46.2609 51.9777 46.8443C51.3942 47.4278 50.6029 47.7555 49.7778 47.7555C48.9526 47.7555 48.1613 47.4278 47.5779 46.8443C46.9944 46.2609 46.6667 45.4696 46.6667 44.6444C46.6667 43.8193 46.9944 43.028 47.5779 42.4445C48.1613 41.8611 48.9526 41.5333 49.7778 41.5333Z" fill="black"/>
<path d="M37.8 45.1111C37.8 45.7333 37.8 47.2889 37.6445 48.8444C37.2811 53.6472 38.3071 58.4531 40.6 62.6889C41.4727 64.2444 42.574 65.66 43.8667 66.8889C47.0619 69.6154 51.1837 71.0079 55.3778 70.7777" stroke="black" stroke-width="2" stroke-linecap="round" stroke-linejoin="round"/>
<path d="M73.4222 44.6445V45.2667C72.6748 48.387 71.579 51.4134 70.1555 54.2889C70.1555 54.2889 67.2 58.9556 65.9555 52.4222C59.2913 50.5551 52.2421 50.5551 45.5778 52.4222C44.3333 58.9556 41.3778 54.2889 41.3778 54.2889C39.9543 51.4134 38.8585 48.387 38.1111 45.2667C38.1111 45.1111 37.8 43.2445 37.8 42.9333" stroke="black" stroke-width="2" stroke-linecap="round" stroke-linejoin="round"/>
<path d="M73.4222 45.1111C73.4222 45.7333 73.5778 47.2889 73.5778 48.8444C73.9411 53.6472 72.9151 58.4531 70.6222 62.6889C69.8011 64.278 68.6936 65.7018 67.3555 66.8889C64.1709 69.6339 60.0414 71.029 55.8444 70.7777H55.3778M65.3333 30.9555H65.6444C67.5111 31.1111 70.6222 33.2889 73.4222 44.4889M37.8 45.1111C36.8658 41.6599 36.66 38.0522 37.1956 34.5172C37.7312 30.9822 38.9965 27.5973 40.9111 24.5778C45.8889 16.9555 60.9778 20.8444 60.9778 20.8444L65.8 17.1111L67.5111 21.9333L72.8 18.0444C73.351 19.4474 73.4677 20.9836 73.1348 22.4538C72.8019 23.9239 72.0349 25.26 70.9333 26.2889C69.3661 27.9008 67.522 29.218 65.4889 30.1777C64.908 30.5268 64.2791 30.7888 63.6222 30.9555C54.6 34.3777 54.1333 33.9111 47.1333 30.9555C47.1333 30.9555 42 27.0666 37.6444 44.3333L37.8 45.1111Z" stroke="black" stroke-width="2" stroke-linecap="round" stroke-linejoin="round"/>
<path d="M71.2444 26.6C74.0241 32.352 74.7911 38.871 73.4222 45.1111" stroke="black" stroke-width="2" stroke-linecap="round" stroke-linejoin="round"/>
</svg>
