<svg width="112" height="112" viewBox="0 0 112 112" fill="none" xmlns="http://www.w3.org/2000/svg">
<path d="M26.4445 94.8888V88.6666C26.4445 80.8888 34.2222 74.6666 42 74.6666C51.3333 82.4444 60.6667 82.4444 70 74.6666C77.7778 74.6666 85.5556 80.8888 85.5556 88.6666V94.8888" fill="#92D3F5"/>
<path d="M28 73.5778C29.7111 75.1333 31.7333 76.5333 33.6 77.7778C36.2444 75.9111 39.2 74.6667 42 74.5111C51.6444 82.2889 61.4445 82.2889 71.0889 74.5111C73.2667 74.6667 75.6 75.4445 77.6222 76.8445C79.3333 75.7556 80.8889 74.5111 82.2889 73.2667C84.1556 72.1778 87.1111 60.3556 82.9111 53.0445C82.2889 51.6445 81.6667 50.4 81.0444 49C78.7111 43.8667 77.9333 42 77.4667 32.6667C77.4667 26.9111 71.5556 22.0889 65.8 21.6222C65.3333 21.6222 65.0222 21.4667 64.7111 21.1556C64.5556 21 60.9778 16.9556 53.5111 16.9556C43.8667 16.9556 35.7778 22.2445 33.7556 29.7111C32.9778 32.8222 32.6667 36.0889 32.8222 39.3556C33.1333 42.4667 32.6667 45.7333 31.5778 48.6889C31.2667 49.9333 30.6444 51.0222 29.8667 51.9556C23.9556 58.6445 28.3111 74.0445 28 73.5778Z" fill="#F1B31C"/>
<path d="M39.5111 45.7333V47.2889C39.5111 59.1111 46.6667 68.4444 55.8444 68.4444C65.0222 68.4444 72.1778 59.1111 72.1778 47.2889C72.1778 39.9778 69.3778 35.6222 63.9333 30.0222C59.5778 33.4444 54.9111 36.4 49.9333 39.0444C45.8889 41.2222 40.1333 44.4889 39.5111 45.7333Z" fill="#FCEA2B"/>
<path d="M29.2445 72.4889C23.4889 63.3111 28.3111 56.7778 31.1111 49.6222C33.6 43.0889 30.8 39.5111 33.1333 30.9556C35.4667 22.4 44.4889 16.9556 54.4445 16.9556C62.8445 16.9556 66.8889 21.6222 66.8889 21.6222C73.4222 22.2445 78.4 27.6889 78.4 34.0667C79.0222 45.2667 79.9556 45.2667 83.6889 53.9778C86.3333 60.0445 85.4 66.8889 81.5111 72.1778M26.4445 93.1778V88.5111C26.4445 80.7333 34.2222 74.5111 42 74.5111C51.3333 82.2889 60.6667 82.2889 70 74.5111C77.7778 74.5111 85.5556 80.7333 85.5556 88.5111V93.1778" stroke="black" stroke-width="2" stroke-linecap="round" stroke-linejoin="round"/>
<path d="M65.3333 46.5111C65.3333 48.2222 63.9333 49.6222 62.2222 49.6222C60.5111 49.6222 59.1111 48.2222 59.1111 46.5111C59.1111 44.8 60.5111 43.4 62.2222 43.4C63.9333 43.4 65.3333 44.8 65.3333 46.5111ZM52.8889 46.5111C52.8889 48.2222 51.4889 49.6222 49.7778 49.6222C48.0667 49.6222 46.6667 48.2222 46.6667 46.5111C46.6667 44.8 48.0667 43.4 49.7778 43.4C51.4889 43.4 52.8889 44.8 52.8889 46.5111Z" fill="black"/>
<path d="M38.8889 48.0667C38.8889 60.5111 46.6667 69.8445 56 69.8445C65.3333 69.8445 73.1111 60.5111 73.1111 48.0667C73.1111 40.2889 70 35.6222 63.7778 29.4C57.5556 35.6222 38.8889 43.4 38.8889 46.5111V48.0667Z" stroke="black" stroke-width="2" stroke-linejoin="round"/>
<path d="M51.3333 59.2666C54.2889 60.8222 57.7111 60.8222 60.6667 59.2666" stroke="black" stroke-width="2" stroke-linecap="round" stroke-linejoin="round"/>
</svg>
