<svg width="160" height="76" viewBox="0 0 160 76" fill="none" xmlns="http://www.w3.org/2000/svg">
<path fill-rule="evenodd" clip-rule="evenodd" d="M78.9197 15.3833C79.5736 15.6541 80 16.2922 80 17.0001V25.7501H97.5C98.4283 25.7501 99.3185 26.1188 99.9749 26.7752C100.631 27.4316 101 28.3218 101 29.2501V46.7501C101 47.6783 100.631 48.5685 99.9749 49.2249C99.3185 49.8813 98.4283 50.2501 97.5 50.2501H80V59.0001C80 59.7079 79.5736 60.346 78.9197 60.6168C78.2658 60.8877 77.5131 60.738 77.0126 60.2375L56.0126 39.2375C55.3291 38.5541 55.3291 37.446 56.0126 36.7626L77.0126 15.7626C77.5131 15.2621 78.2658 15.1124 78.9197 15.3833ZM59.7249 38.0001L76.5 54.7752V48.5001C76.5 47.5336 77.2835 46.7501 78.25 46.7501H97.5V29.2501H78.25C77.2835 29.2501 76.5 28.4665 76.5 27.5001V21.2249L59.7249 38.0001Z" fill="#0097B2" fill-opacity="0.5"/>
<path d="M2 38C2 18.1177 18.1177 2 38 2H158V74H38C18.1177 74 2 57.8823 2 38V38Z" stroke="#0097B2" stroke-opacity="0.5" stroke-width="3"/>
</svg>
