<svg width="156" height="72" viewBox="0 0 156 72" fill="none" xmlns="http://www.w3.org/2000/svg">
<path d="M0 0H120C139.882 0 156 16.1177 156 36V36C156 55.8823 139.882 72 120 72H0V0Z" fill="#0097B2" fill-opacity="0.3"/>
<path fill-rule="evenodd" clip-rule="evenodd" d="M79.0803 13.3833C79.7342 13.1124 80.4869 13.2621 80.9874 13.7626L101.987 34.7626C102.671 35.446 102.671 36.5541 101.987 37.2375L80.9874 58.2375C80.4869 58.738 79.7342 58.8877 79.0803 58.6168C78.4264 58.346 78 57.7079 78 57.0001V48.2501H60.5C59.5717 48.2501 58.6815 47.8813 58.0251 47.2249C57.3687 46.5685 57 45.6783 57 44.7501V27.2501C57 26.3218 57.3688 25.4316 58.0251 24.7752C58.6815 24.1188 59.5717 23.7501 60.5 23.7501H78V15.0001C78 14.2922 78.4264 13.6541 79.0803 13.3833ZM81.5 19.2249V25.5001C81.5 26.4665 80.7165 27.2501 79.75 27.2501H60.5L60.5 44.7501H79.75C80.7165 44.7501 81.5 45.5336 81.5 46.5001V52.7752L98.2751 36.0001L81.5 19.2249Z" fill="#0097B2"/>
</svg>
