<svg width="156" height="72" viewBox="0 0 156 72" fill="none" xmlns="http://www.w3.org/2000/svg">
<path d="M0 36C0 16.1177 16.1177 0 36 0H156V72H36C16.1177 72 0 55.8823 0 36V36Z" fill="#0097B2" fill-opacity="0.3"/>
<path fill-rule="evenodd" clip-rule="evenodd" d="M76.9197 13.3833C77.5736 13.6541 78 14.2922 78 15.0001V23.7501H95.5C96.4283 23.7501 97.3185 24.1188 97.9749 24.7752C98.6313 25.4316 99 26.3218 99 27.2501V44.7501C99 45.6783 98.6313 46.5685 97.9749 47.2249C97.3185 47.8813 96.4283 48.2501 95.5 48.2501H78V57.0001C78 57.7079 77.5736 58.346 76.9197 58.6168C76.2658 58.8877 75.5131 58.738 75.0126 58.2375L54.0126 37.2375C53.3291 36.5541 53.3291 35.446 54.0126 34.7626L75.0126 13.7626C75.5131 13.2621 76.2658 13.1124 76.9197 13.3833ZM57.7249 36.0001L74.5 52.7752V46.5001C74.5 45.5336 75.2835 44.7501 76.25 44.7501H95.5V27.2501H76.25C75.2835 27.2501 74.5 26.4665 74.5 25.5001V19.2249L57.7249 36.0001Z" fill="#0097B2"/>
</svg>
