<svg width="56" height="56" viewBox="0 0 56 56" fill="none" xmlns="http://www.w3.org/2000/svg">
<path fill-rule="evenodd" clip-rule="evenodd" d="M28 8.75C17.3685 8.75 8.75 17.3685 8.75 28C8.75 38.6315 17.3685 47.25 28 47.25C38.6315 47.25 47.25 38.6315 47.25 28C47.25 17.3685 38.6315 8.75 28 8.75ZM5.25 28C5.25 15.4355 15.4355 5.25 28 5.25C40.5645 5.25 50.75 15.4355 50.75 28C50.75 40.5645 40.5645 50.75 28 50.75C15.4355 50.75 5.25 40.5645 5.25 28Z" fill="#007084"/>
<path fill-rule="evenodd" clip-rule="evenodd" d="M27.9031 19.3469C28.5865 20.0303 28.5865 21.1384 27.9031 21.8218L21.7249 28L27.9031 34.1782C28.5865 34.8616 28.5865 35.9696 27.9031 36.653C27.2196 37.3365 26.1116 37.3365 25.4282 36.653L18.0126 29.2374C17.6844 28.9092 17.5 28.4641 17.5 28C17.5 27.5358 17.6844 27.0907 18.0126 26.7625L25.4282 19.3469C26.1116 18.6635 27.2196 18.6635 27.9031 19.3469Z" fill="#007084"/>
<path fill-rule="evenodd" clip-rule="evenodd" d="M17.5 28C17.5 27.0335 18.2835 26.25 19.25 26.25H36.75C37.7165 26.25 38.5 27.0335 38.5 28C38.5 28.9665 37.7165 29.75 36.75 29.75H19.25C18.2835 29.75 17.5 28.9665 17.5 28Z" fill="#007084"/>
</svg>
