<svg width="56" height="56" viewBox="0 0 56 56" fill="none" xmlns="http://www.w3.org/2000/svg">
<path fill-rule="evenodd" clip-rule="evenodd" d="M28 8.75C17.3685 8.75 8.75 17.3685 8.75 28C8.75 38.6315 17.3685 47.25 28 47.25C38.6315 47.25 47.25 38.6315 47.25 28C47.25 17.3685 38.6315 8.75 28 8.75ZM5.25 28C5.25 15.4355 15.4355 5.25 28 5.25C40.5645 5.25 50.75 15.4355 50.75 28C50.75 40.5645 40.5645 50.75 28 50.75C15.4355 50.75 5.25 40.5645 5.25 28Z" fill="#007084"/>
<path fill-rule="evenodd" clip-rule="evenodd" d="M28.0969 19.3469C28.7804 18.6635 29.8884 18.6635 30.5718 19.3469L37.9874 26.7625C38.6709 27.446 38.6709 28.554 37.9874 29.2374L30.5718 36.653C29.8884 37.3365 28.7804 37.3365 28.0969 36.653C27.4135 35.9696 27.4135 34.8616 28.0969 34.1782L34.2751 28L28.0969 21.8218C27.4135 21.1384 27.4135 20.0303 28.0969 19.3469Z" fill="#007084"/>
<path fill-rule="evenodd" clip-rule="evenodd" d="M17.5 28C17.5 27.0335 18.2835 26.25 19.25 26.25H36.75C37.7165 26.25 38.5 27.0335 38.5 28C38.5 28.9665 37.7165 29.75 36.75 29.75H19.25C18.2835 29.75 17.5 28.9665 17.5 28Z" fill="#007084"/>
</svg>
