<svg width="48" height="48" viewBox="0 0 48 48" fill="none" xmlns="http://www.w3.org/2000/svg">
<path fill-rule="evenodd" clip-rule="evenodd" d="M16.5 24C16.5 23.1716 17.1716 22.5 18 22.5H30C30.8284 22.5 31.5 23.1716 31.5 24C31.5 24.8284 30.8284 25.5 30 25.5H18C17.1716 25.5 16.5 24.8284 16.5 24Z" fill="#F98B33"/>
<path fill-rule="evenodd" clip-rule="evenodd" d="M16.5 30C16.5 29.1716 17.1716 28.5 18 28.5H30C30.8284 28.5 31.5 29.1716 31.5 30C31.5 30.8284 30.8284 31.5 30 31.5H18C17.1716 31.5 16.5 30.8284 16.5 30Z" fill="#F98B33"/>
<path fill-rule="evenodd" clip-rule="evenodd" d="M8.37868 6.87868C8.94129 6.31607 9.70435 6 10.5 6H37.5C38.2956 6 39.0587 6.31607 39.6213 6.87868C40.1839 7.44129 40.5 8.20435 40.5 9V37.5C40.5 39.0913 39.8679 40.6174 38.7426 41.7426C37.6174 42.8679 36.0913 43.5 34.5 43.5H13.5C11.9087 43.5 10.3826 42.8679 9.25736 41.7426C8.13214 40.6174 7.5 39.0913 7.5 37.5V9C7.5 8.20435 7.81607 7.44129 8.37868 6.87868ZM10.5 9L10.5 37.5C10.5 38.2957 10.8161 39.0587 11.3787 39.6213C11.9413 40.1839 12.7044 40.5 13.5 40.5H34.5C35.2957 40.5 36.0587 40.1839 36.6213 39.6213C37.1839 39.0587 37.5 38.2957 37.5 37.5V9L10.5 9Z" fill="#F98B33"/>
<path fill-rule="evenodd" clip-rule="evenodd" d="M15 3C15.8284 3 16.5 3.67157 16.5 4.5V10.5C16.5 11.3284 15.8284 12 15 12C14.1716 12 13.5 11.3284 13.5 10.5V4.5C13.5 3.67157 14.1716 3 15 3Z" fill="#F98B33"/>
<path fill-rule="evenodd" clip-rule="evenodd" d="M24 3C24.8284 3 25.5 3.67157 25.5 4.5V10.5C25.5 11.3284 24.8284 12 24 12C23.1716 12 22.5 11.3284 22.5 10.5V4.5C22.5 3.67157 23.1716 3 24 3Z" fill="#F98B33"/>
<path fill-rule="evenodd" clip-rule="evenodd" d="M33 3C33.8284 3 34.5 3.67157 34.5 4.5V10.5C34.5 11.3284 33.8284 12 33 12C32.1716 12 31.5 11.3284 31.5 10.5V4.5C31.5 3.67157 32.1716 3 33 3Z" fill="#F98B33"/>
</svg>
