<svg width="48" height="48" viewBox="0 0 48 48" fill="none" xmlns="http://www.w3.org/2000/svg">
<path fill-rule="evenodd" clip-rule="evenodd" d="M21.9772 5.81005C22.53 5.30536 23.2514 5.02551 24 5.02551C24.7486 5.02551 25.47 5.30536 26.0228 5.81004L26.025 5.81206L41.0213 19.4399L41.0424 19.4595C41.3389 19.7395 41.5763 20.0759 41.7407 20.449C41.9051 20.8221 41.9932 21.2243 41.9998 21.632L42 21.6563V39C42 39.7957 41.6839 40.5587 41.1213 41.1214C40.5587 41.684 39.7956 42 39 42H30C29.2044 42 28.4413 41.684 27.8787 41.1214C27.3161 40.5587 27 39.7957 27 39V30H21V39C21 39.7957 20.6839 40.5587 20.1213 41.1214C19.5587 41.684 18.7956 42 18 42H9C8.20435 42 7.44129 41.684 6.87868 41.1214C6.31607 40.5587 6 39.7957 6 39V21.6563L6.0002 21.632C6.00679 21.2243 6.09489 20.8221 6.25931 20.449C6.42373 20.0759 6.66115 19.7395 6.95758 19.4595L6.9787 19.4399L21.975 5.81206L21.9772 5.81005ZM9.01421 21.6439L23.9963 8.02888L24 8.02551L24.0037 8.02888L38.9858 21.6439C38.9898 21.6483 38.993 21.6533 38.9954 21.6588C38.9979 21.6645 38.9995 21.6705 39 21.6767V39H30V30C30 29.2044 29.6839 28.4413 29.1213 27.8787C28.5587 27.3161 27.7956 27 27 27H21C20.2044 27 19.4413 27.3161 18.8787 27.8787C18.3161 28.4413 18 29.2044 18 30V39H9V21.6767C9.00053 21.6705 9.00207 21.6645 9.00457 21.6588C9.00698 21.6533 9.01024 21.6483 9.01421 21.6439Z" fill="white"/>
</svg>
