<svg width="48" height="48" viewBox="0 0 48 48" fill="none" xmlns="http://www.w3.org/2000/svg">
<path fill-rule="evenodd" clip-rule="evenodd" d="M24 7.5C14.8873 7.5 7.5 14.8873 7.5 24C7.5 33.1127 14.8873 40.5 24 40.5C33.1127 40.5 40.5 33.1127 40.5 24C40.5 14.8873 33.1127 7.5 24 7.5ZM4.5 24C4.5 13.2304 13.2304 4.5 24 4.5C34.7696 4.5 43.5 13.2304 43.5 24C43.5 34.7696 34.7696 43.5 24 43.5C13.2304 43.5 4.5 34.7696 4.5 24Z" fill="#F98B33"/>
<path fill-rule="evenodd" clip-rule="evenodd" d="M24 16.5C20.6863 16.5 18 19.1863 18 22.5C18 25.8137 20.6863 28.5 24 28.5C27.3137 28.5 30 25.8137 30 22.5C30 19.1863 27.3137 16.5 24 16.5ZM15 22.5C15 17.5294 19.0294 13.5 24 13.5C28.9706 13.5 33 17.5294 33 22.5C33 27.4706 28.9706 31.5 24 31.5C19.0294 31.5 15 27.4706 15 22.5Z" fill="#F98B33"/>
<path fill-rule="evenodd" clip-rule="evenodd" d="M24 31.4989C21.784 31.4989 19.6112 32.1125 17.7226 33.2718C15.8339 34.431 14.3032 36.0906 13.3 38.0666C12.925 38.8053 12.0222 39.1001 11.2835 38.7251C10.5448 38.35 10.25 37.4472 10.625 36.7085C11.879 34.2386 13.7924 32.1641 16.1532 30.715C18.514 29.2659 21.23 28.4989 24 28.4989C26.7701 28.4989 29.486 29.2659 31.8468 30.715C34.2076 32.1641 36.121 34.2386 37.375 36.7085C37.75 37.4472 37.4552 38.35 36.7165 38.7251C35.9779 39.1001 35.075 38.8053 34.7 38.0666C33.6968 36.0906 32.1661 34.431 30.2774 33.2718C28.3888 32.1125 26.216 31.4989 24 31.4989Z" fill="#F98B33"/>
</svg>
