<svg width="328" height="84" viewBox="0 0 328 84" fill="none" xmlns="http://www.w3.org/2000/svg">
<rect width="328" height="84" rx="42" fill="#0097B2"/>
<path fill-rule="evenodd" clip-rule="evenodd" d="M65.9772 23.8099C66.53 23.3052 67.2514 23.0254 68 23.0254C68.7486 23.0254 69.47 23.3052 70.0228 23.8099L70.025 23.8119L85.0213 37.4398L85.0424 37.4594C85.3389 37.7393 85.5763 38.0758 85.7407 38.4489C85.9051 38.822 85.9932 39.2242 85.9998 39.6319L86 39.6562V56.9999C86 57.7956 85.6839 58.5586 85.1213 59.1212C84.5587 59.6838 83.7956 59.9999 83 59.9999H74C73.2044 59.9999 72.4413 59.6838 71.8787 59.1212C71.3161 58.5586 71 57.7956 71 56.9999V47.9999H65V56.9999C65 57.7956 64.6839 58.5586 64.1213 59.1212C63.5587 59.6838 62.7956 59.9999 62 59.9999H53C52.2044 59.9999 51.4413 59.6838 50.8787 59.1212C50.3161 58.5586 50 57.7956 50 56.9999V39.6562L50.0002 39.6319C50.0068 39.2242 50.0949 38.822 50.2593 38.4489C50.4237 38.0758 50.6611 37.7393 50.9576 37.4594L50.9787 37.4398L65.975 23.8119L65.9772 23.8099ZM53.0142 39.6437L67.9963 26.0288L68 26.0254L68.0037 26.0288L82.9858 39.6437C82.9898 39.6482 82.993 39.6532 82.9954 39.6587C82.9979 39.6643 82.9995 39.6704 83 39.6766V56.9999H74V47.9999C74 47.2043 73.6839 46.4412 73.1213 45.8786C72.5587 45.316 71.7956 44.9999 71 44.9999H65C64.2044 44.9999 63.4413 45.316 62.8787 45.8786C62.3161 46.4412 62 47.2043 62 47.9999V56.9999H53V39.6766C53.0005 39.6704 53.0021 39.6643 53.0046 39.6587C53.007 39.6532 53.0102 39.6482 53.0142 39.6437Z" fill="white"/>
<path fill-rule="evenodd" clip-rule="evenodd" d="M156.5 42C156.5 41.1716 157.172 40.5 158 40.5H170C170.828 40.5 171.5 41.1716 171.5 42C171.5 42.8284 170.828 43.5 170 43.5H158C157.172 43.5 156.5 42.8284 156.5 42Z" fill="white"/>
<path fill-rule="evenodd" clip-rule="evenodd" d="M156.5 48C156.5 47.1716 157.172 46.5 158 46.5H170C170.828 46.5 171.5 47.1716 171.5 48C171.5 48.8284 170.828 49.5 170 49.5H158C157.172 49.5 156.5 48.8284 156.5 48Z" fill="white"/>
<path fill-rule="evenodd" clip-rule="evenodd" d="M148.379 24.8787C148.941 24.3161 149.704 24 150.5 24H177.5C178.296 24 179.059 24.3161 179.621 24.8787C180.184 25.4413 180.5 26.2044 180.5 27V55.5C180.5 57.0913 179.868 58.6174 178.743 59.7426C177.617 60.8679 176.091 61.5 174.5 61.5H153.5C151.909 61.5 150.383 60.8679 149.257 59.7426C148.132 58.6174 147.5 57.0913 147.5 55.5V27C147.5 26.2043 147.816 25.4413 148.379 24.8787ZM150.5 27L150.5 55.5C150.5 56.2957 150.816 57.0587 151.379 57.6213C151.941 58.1839 152.704 58.5 153.5 58.5H174.5C175.296 58.5 176.059 58.1839 176.621 57.6213C177.184 57.0587 177.5 56.2957 177.5 55.5V27L150.5 27Z" fill="white"/>
<path fill-rule="evenodd" clip-rule="evenodd" d="M155 21C155.828 21 156.5 21.6716 156.5 22.5V28.5C156.5 29.3284 155.828 30 155 30C154.172 30 153.5 29.3284 153.5 28.5V22.5C153.5 21.6716 154.172 21 155 21Z" fill="white"/>
<path fill-rule="evenodd" clip-rule="evenodd" d="M164 21C164.828 21 165.5 21.6716 165.5 22.5V28.5C165.5 29.3284 164.828 30 164 30C163.172 30 162.5 29.3284 162.5 28.5V22.5C162.5 21.6716 163.172 21 164 21Z" fill="white"/>
<path fill-rule="evenodd" clip-rule="evenodd" d="M173 21C173.828 21 174.5 21.6716 174.5 22.5V28.5C174.5 29.3284 173.828 30 173 30C172.172 30 171.5 29.3284 171.5 28.5V22.5C171.5 21.6716 172.172 21 173 21Z" fill="white"/>
<path fill-rule="evenodd" clip-rule="evenodd" d="M260 25.5C250.887 25.5 243.5 32.8873 243.5 42C243.5 51.1127 250.887 58.5 260 58.5C269.113 58.5 276.5 51.1127 276.5 42C276.5 32.8873 269.113 25.5 260 25.5ZM240.5 42C240.5 31.2304 249.23 22.5 260 22.5C270.77 22.5 279.5 31.2304 279.5 42C279.5 52.7696 270.77 61.5 260 61.5C249.23 61.5 240.5 52.7696 240.5 42Z" fill="#F98B33"/>
<path fill-rule="evenodd" clip-rule="evenodd" d="M260 34.5C256.686 34.5 254 37.1863 254 40.5C254 43.8137 256.686 46.5 260 46.5C263.314 46.5 266 43.8137 266 40.5C266 37.1863 263.314 34.5 260 34.5ZM251 40.5C251 35.5294 255.029 31.5 260 31.5C264.971 31.5 269 35.5294 269 40.5C269 45.4706 264.971 49.5 260 49.5C255.029 49.5 251 45.4706 251 40.5Z" fill="#F98B33"/>
<path fill-rule="evenodd" clip-rule="evenodd" d="M260 49.4988C257.784 49.4988 255.611 50.1124 253.723 51.2717C251.834 52.4309 250.303 54.0905 249.3 56.0665C248.925 56.8051 248.022 57.1 247.283 56.7249C246.545 56.3499 246.25 55.4471 246.625 54.7084C247.879 52.2384 249.792 50.164 252.153 48.7149C254.514 47.2658 257.23 46.4988 260 46.4988C262.77 46.4988 265.486 47.2658 267.847 48.7149C270.208 50.164 272.121 52.2384 273.375 54.7084C273.75 55.4471 273.455 56.3499 272.717 56.7249C271.978 57.1 271.075 56.8051 270.7 56.0665C269.697 54.0905 268.166 52.4309 266.277 51.2717C264.389 50.1124 262.216 49.4988 260 49.4988Z" fill="#F98B33"/>
</svg>
