<svg width="67" height="42" viewBox="0 0 67 42" fill="none" xmlns="http://www.w3.org/2000/svg">
<path d="M67 5.00907L51.8527 8.98749C52.8988 13.8745 53.3903 18.0022 53.3273 21.3706C53.2643 24.739 52.6896 27.7641 51.6034 30.4457C50.8553 32.2952 49.8815 33.9388 48.6819 35.3763C47.4824 36.8138 46.1287 38.0303 44.6209 39.0256C47.7355 37.9564 50.5169 36.2899 52.965 34.0262C55.4132 31.7626 57.3047 28.9807 58.6394 25.6805L67 5.00907Z" fill="#F98B33"/>
<path d="M-1.35102e-06 5.00907L15.1473 8.98749C14.1012 13.8745 13.6097 18.0022 13.6727 21.3706C13.7357 24.739 14.3104 27.7641 15.3966 30.4457C16.1447 32.2952 17.1185 33.9388 18.3181 35.3763C19.5176 36.8138 20.8713 38.0303 22.3791 39.0256C19.2645 37.9564 16.4831 36.2899 14.035 34.0262C11.5868 31.7626 9.69533 28.9807 8.36057 25.6805L-1.35102e-06 5.00907Z" fill="#F98B33"/>
<path d="M46.6315 16.8232C45.836 15.0078 44.6794 13.3783 43.2343 12.0367L42.0418 10.9274C42.0013 10.8907 41.9526 10.8647 41.8999 10.8517C41.8471 10.8386 41.7921 10.8388 41.7395 10.8524C41.6869 10.8659 41.6384 10.8923 41.5982 10.9293C41.558 10.9663 41.5274 11.0127 41.5091 11.0645L40.9763 12.6143C40.6444 13.5865 40.0338 14.5796 39.1691 15.556C39.1117 15.6183 39.0462 15.6349 39.0011 15.6391C38.956 15.6432 38.8863 15.6349 38.8249 15.5768C38.7675 15.5269 38.7388 15.4521 38.7429 15.3773C38.8945 12.876 38.1569 10.0548 36.5423 6.98434C35.2063 4.43321 33.3499 2.44299 31.0305 1.05524L29.338 0.045594C29.1167 -0.087364 28.834 0.0871432 28.8462 0.348904L28.9364 2.34327C28.9979 3.70609 28.8421 4.91103 28.4733 5.91237C28.0225 7.13807 27.3751 8.27652 26.5473 9.29864C25.9712 10.009 25.3182 10.6515 24.6007 11.2141C22.8726 12.561 21.4674 14.2868 20.4904 16.2623C19.5158 18.2551 19.0081 20.4491 19.007 22.6734C19.007 24.6345 19.3881 26.5333 20.1421 28.3241C20.8702 30.0483 21.9209 31.613 23.2361 32.9319C24.5638 34.2615 26.1047 35.3085 27.8217 36.0357C29.6003 36.7919 31.4854 37.1741 33.4319 37.1741C35.3785 37.1741 37.2635 36.7919 39.0421 36.0398C40.7549 35.317 42.3124 34.2628 43.6277 32.9361C44.9555 31.6065 45.9964 30.0525 46.7217 28.3283C47.4746 26.5424 47.8608 24.6197 47.8568 22.6775C47.8568 20.6499 47.447 18.6805 46.6315 16.8232Z" fill="#F98B33"/>
<path d="M33.9346 33.0309C37.1024 32.8144 41.7184 31.0636 42.6917 25.6284" stroke="white" stroke-width="2" stroke-linecap="round"/>
</svg>
